<?xml version="1.0" encoding="UTF-8" standalone="no"?>
<svg
   xmlns:dc="http://purl.org/dc/elements/1.1/"
   xmlns:cc="http://creativecommons.org/ns#"
   xmlns:rdf="http://www.w3.org/1999/02/22-rdf-syntax-ns#"
   xmlns:svg="http://www.w3.org/2000/svg"
   xmlns="http://www.w3.org/2000/svg"
   xmlns:sodipodi="http://sodipodi.sourceforge.net/DTD/sodipodi-0.dtd"
   xmlns:inkscape="http://www.inkscape.org/namespaces/inkscape"
   id="svg2"
   xml:space="preserve"
   enable-background="new 0 0 2000 1200"
   viewBox="0 0 580.00001 580"
   height="580"
   width="580"
   y="0px"
   x="0px"
   version="1.1"
   inkscape:version="0.91 r13725"
   sodipodi:docname="dunmo_greenSquare.svg"
   inkscape:export-filename="/Users/michael/Google Drive/Dunmo/Branding Guide/assets/bot/dunmo_greenSquare.png"
   inkscape:export-xdpi="90"
   inkscape:export-ydpi="90"><sodipodi:namedview
     pagecolor="#237a29"
     bordercolor="#666666"
     borderopacity="1"
     objecttolerance="10"
     gridtolerance="10"
     guidetolerance="10"
     inkscape:pageopacity="1"
     inkscape:pageshadow="2"
     inkscape:window-width="1366"
     inkscape:window-height="667"
     id="namedview3536"
     showgrid="false"
     inkscape:zoom="0.5363133"
     inkscape:cx="330.38233"
     inkscape:cy="253.06953"
     inkscape:window-x="0"
     inkscape:window-y="0"
     inkscape:window-maximized="0"
     inkscape:current-layer="svg2"
     fit-margin-top="0"
     fit-margin-left="0"
     fit-margin-right="0"
     fit-margin-bottom="0" /><metadata
     id="metadata95"><rdf:RDF><cc:Work
         rdf:about=""><dc:format>image/svg+xml</dc:format><dc:type
           rdf:resource="http://purl.org/dc/dcmitype/StillImage" /><dc:title></dc:title></cc:Work></rdf:RDF></metadata><defs
     id="defs93" /><g
     transform="translate(-446.49922,-550.16752)"
     style="display:none"
     display="none"
     id="Layer_3"><rect
       style="display:inline;fill:#54ba62"
       y="0"
       x="0"
       id="rect5"
       height="1200"
       width="2000"
       display="inline" /></g><g
     transform="translate(351.13814,-527.47708)"
     display="none"
     id="Layer_3-4"
     style="display:none"><rect
       id="rect4356"
       height="1200"
       width="2000"
       display="inline"
       x="0"
       y="0"
       style="display:inline;fill:#54ba62" /></g><g
     id="g3676"
     transform="translate(-360,-35)"><g
       id="g4367"
       transform="matrix(0.9985724,0,0,0.9985724,-277.08681,-19.034976)"><g
         transform="translate(8.0610227,-10.461627)"
         id="g4369"><path
           style="color:#000000;font-style:normal;font-variant:normal;font-weight:normal;font-stretch:normal;font-size:medium;line-height:normal;font-family:sans-serif;text-indent:0;text-align:start;text-decoration:none;text-decoration-line:none;text-decoration-style:solid;text-decoration-color:#000000;letter-spacing:normal;word-spacing:normal;text-transform:none;direction:ltr;block-progression:tb;writing-mode:lr-tb;baseline-shift:baseline;text-anchor:start;white-space:normal;clip-rule:nonzero;display:inline;overflow:visible;visibility:visible;opacity:1;isolation:auto;mix-blend-mode:normal;color-interpolation:sRGB;color-interpolation-filters:linearRGB;solid-color:#000000;solid-opacity:1;fill:#ffffff;fill-opacity:1;fill-rule:evenodd;stroke:none;stroke-width:2.00285935;stroke-linecap:butt;stroke-linejoin:miter;stroke-miterlimit:4;stroke-dasharray:none;stroke-dashoffset:0;stroke-opacity:1;color-rendering:auto;image-rendering:auto;shape-rendering:auto;text-rendering:auto;enable-background:accumulate"
           d="m 1035.1441,350.76953 -1.2301,21.95899 c 0,0 13.6174,0.12372 23.6172,9.30859 9.9999,9.18487 21.6172,33.88397 21.6172,75.44713 0,0 4.9609,-1.67448 10.9692,-1.67448 6.0083,0 11.0308,1.67459 11.0308,1.67459 0,-46.21139 -13.8828,-76.88625 -29.3828,-91.12302 -15.5,-14.23678 -36.6215,-15.5918 -36.6215,-15.5918 z"
           id="path4371"
           inkscape:connector-curvature="0" /><path
           id="path4373"
           d="m 1090.2129,458.20494 c -15.5385,0 -25.5113,8.50464 -29.7715,16.62305 -4.2602,8.1184 -4.1582,16.07226 -4.1582,16.07226 l 15.6484,-0.002 c 0,0 0.1001,-4.48221 2.3653,-8.79883 2.2652,-4.31662 5.346,-8.24609 15.916,-8.24609 10.5947,0 13.6688,3.93055 15.9277,8.24218 2.259,4.31164 2.3535,8.78907 2.3535,8.78907 l 15.6485,0.0293 c 0,0 0.1154,-7.95668 -4.1406,-16.08008 -4.2561,-8.12339 -14.2337,-16.6289 -29.7891,-16.6289 z"
           style="color:#000000;font-style:normal;font-variant:normal;font-weight:normal;font-stretch:normal;font-size:medium;line-height:normal;font-family:sans-serif;text-indent:0;text-align:start;text-decoration:none;text-decoration-line:none;text-decoration-style:solid;text-decoration-color:#000000;letter-spacing:normal;word-spacing:normal;text-transform:none;direction:ltr;block-progression:tb;writing-mode:lr-tb;baseline-shift:baseline;text-anchor:start;white-space:normal;clip-rule:nonzero;display:inline;overflow:visible;visibility:visible;opacity:1;isolation:auto;mix-blend-mode:normal;color-interpolation:sRGB;color-interpolation-filters:linearRGB;solid-color:#000000;solid-opacity:1;fill:#ffffff;fill-opacity:1;fill-rule:evenodd;stroke:none;stroke-width:2.00285935;stroke-linecap:butt;stroke-linejoin:miter;stroke-miterlimit:4;stroke-dasharray:none;stroke-dashoffset:0;stroke-opacity:1;color-rendering:auto;image-rendering:auto;shape-rendering:auto;text-rendering:auto;enable-background:accumulate"
           inkscape:connector-curvature="0" /></g><g
         id="g4375"
         transform="matrix(-1,0,0,1,1848.7634,-10.461627)"><path
           id="path4377"
           d="m 1035.7588,350.76953 -1.2301,21.95899 c 0,0 13.0027,0.12372 23.0025,9.30859 9.9999,9.18487 21.6172,33.88397 21.6172,75.44713 0,0 4.9609,-1.67448 10.9692,-1.67448 6.0083,0 11.0308,1.67459 11.0308,1.67459 0,-46.21139 -13.8828,-76.88625 -29.3828,-91.12302 -15.5,-14.23678 -36.0068,-15.5918 -36.0068,-15.5918 z"
           style="color:#000000;font-style:normal;font-variant:normal;font-weight:normal;font-stretch:normal;font-size:medium;line-height:normal;font-family:sans-serif;text-indent:0;text-align:start;text-decoration:none;text-decoration-line:none;text-decoration-style:solid;text-decoration-color:#000000;letter-spacing:normal;word-spacing:normal;text-transform:none;direction:ltr;block-progression:tb;writing-mode:lr-tb;baseline-shift:baseline;text-anchor:start;white-space:normal;clip-rule:nonzero;display:inline;overflow:visible;visibility:visible;opacity:1;isolation:auto;mix-blend-mode:normal;color-interpolation:sRGB;color-interpolation-filters:linearRGB;solid-color:#000000;solid-opacity:1;fill:#ffffff;fill-opacity:1;fill-rule:evenodd;stroke:none;stroke-width:2.00285935;stroke-linecap:butt;stroke-linejoin:miter;stroke-miterlimit:4;stroke-dasharray:none;stroke-dashoffset:0;stroke-opacity:1;color-rendering:auto;image-rendering:auto;shape-rendering:auto;text-rendering:auto;enable-background:accumulate"
           inkscape:connector-curvature="0" /><path
           id="path4379"
           d="m 1090.2129,458.20494 c -15.5385,0 -25.5113,8.50464 -29.7715,16.62305 -4.2602,8.1184 -4.1582,16.07226 -4.1582,16.07226 l 15.6484,-0.002 c 0,0 0.1001,-4.48221 2.3653,-8.79883 2.2652,-4.31662 5.346,-8.24609 15.916,-8.24609 10.5947,0 13.6688,3.93055 15.9277,8.24218 2.259,4.31164 2.3535,8.78907 2.3535,8.78907 l 15.6485,0.0293 c 0,0 0.1154,-7.95668 -4.1406,-16.08008 -4.2561,-8.12339 -14.2337,-16.6289 -29.7891,-16.6289 z"
           style="color:#000000;font-style:normal;font-variant:normal;font-weight:normal;font-stretch:normal;font-size:medium;line-height:normal;font-family:sans-serif;text-indent:0;text-align:start;text-decoration:none;text-decoration-line:none;text-decoration-style:solid;text-decoration-color:#000000;letter-spacing:normal;word-spacing:normal;text-transform:none;direction:ltr;block-progression:tb;writing-mode:lr-tb;baseline-shift:baseline;text-anchor:start;white-space:normal;clip-rule:nonzero;display:inline;overflow:visible;visibility:visible;opacity:1;isolation:auto;mix-blend-mode:normal;color-interpolation:sRGB;color-interpolation-filters:linearRGB;solid-color:#000000;solid-opacity:1;fill:#ffffff;fill-opacity:1;fill-rule:evenodd;stroke:none;stroke-width:2.00285935;stroke-linecap:butt;stroke-linejoin:miter;stroke-miterlimit:4;stroke-dasharray:none;stroke-dashoffset:0;stroke-opacity:1;color-rendering:auto;image-rendering:auto;shape-rendering:auto;text-rendering:auto;enable-background:accumulate"
           inkscape:connector-curvature="0" /></g><path
         id="path4381"
         d="m 825.89159,299.98089 c 67.85843,0 203.57451,0 203.57451,0 4.2825,0 8.9264,5.21029 8.8516,10.00254 -0.6055,32.66294 0.1358,290.0757 -110.63863,290.0757 -110.60818,0 -110.63848,-290.0757 -110.63848,-290.0757 0,-4.97936 4.43398,-10.00254 8.851,-10.00254 z"
         style="fill:#ffffff;fill-opacity:1;fill-rule:evenodd;stroke:none;stroke-width:1.8845396;stroke-linecap:butt;stroke-linejoin:miter;stroke-miterlimit:4;stroke-dasharray:none;stroke-opacity:1"
         inkscape:connector-curvature="0" /><g
         transform="matrix(0.9264593,0,0,0.9264593,85.86144,28.611329)"
         id="g4391"><path
           stroke-miterlimit="10"
           d="m 1026.5803,235.89305 c 0,23.04498 -16.2047,41.72493 -36.19433,41.72493 l -163.49128,0 c -19.98933,0 -36.19459,-18.68095 -36.19459,-41.72493 l 0,-62.58739 c 0,-23.04495 16.20526,-41.72491 36.19459,-41.72491 l 163.49128,0 c 19.98963,0 36.19433,18.68096 36.19433,41.72491 l 0,62.58739 z"
           id="path4393"
           style="fill:#ffffff;stroke:none;stroke-width:2.03413129;stroke-miterlimit:10;stroke-dasharray:none;stroke-opacity:1"
           inkscape:connector-curvature="0" /><path
           style="fill:#54ba62"
           d="m 873.57796,188.17867 a 20.329,21.306 0 0 1 -20.329,21.30599 20.329,21.306 0 0 1 -20.329,-21.30599 20.329,21.306 0 0 1 20.329,-21.306 20.329,21.306 0 0 1 20.329,21.306 z"
           id="path4395"
           inkscape:connector-curvature="0" /><path
           style="fill:#54ba62"
           d="m 981.78145,188.17967 a 20.329,21.306 0 0 1 -20.329,21.306 20.329,21.306 0 0 1 -20.32902,-21.306 20.329,21.306 0 0 1 20.32902,-21.306 20.329,21.306 0 0 1 20.329,21.306 z"
           id="path4397"
           inkscape:connector-curvature="0" /><g
           style="stroke:none;stroke-opacity:1"
           id="g4399"
           transform="translate(-11.919031,-0.30690399)"><path
             id="path4401"
             d="m 938.37695,76.685547 c -11.81681,6.982664 -16.59569,21.205141 -19.10547,33.183593 -2.50977,11.97845 -2.49609,22.42188 -2.49609,22.42188 l 10.19922,0 c 0,0 0.0148,-9.52208 2.2793,-20.33008 2.26453,-10.80801 7.03209,-22.192085 14.3125,-26.494143 l -5.18946,-8.78125 z"
             style="color:#000000;font-style:normal;font-variant:normal;font-weight:normal;font-stretch:normal;font-size:medium;line-height:normal;font-family:sans-serif;text-indent:0;text-align:start;text-decoration:none;text-decoration-line:none;text-decoration-style:solid;text-decoration-color:#000000;letter-spacing:normal;word-spacing:normal;text-transform:none;direction:ltr;block-progression:tb;writing-mode:lr-tb;baseline-shift:baseline;text-anchor:start;white-space:normal;clip-rule:nonzero;display:inline;overflow:visible;visibility:visible;opacity:1;isolation:auto;mix-blend-mode:normal;color-interpolation:sRGB;color-interpolation-filters:linearRGB;solid-color:#000000;solid-opacity:1;fill:#ffffff;fill-opacity:1;fill-rule:evenodd;stroke:none;stroke-width:2.16184282;stroke-linecap:butt;stroke-linejoin:round;stroke-miterlimit:4;stroke-dasharray:none;stroke-dashoffset:0;stroke-opacity:1;color-rendering:auto;image-rendering:auto;shape-rendering:auto;text-rendering:auto;enable-background:accumulate"
             inkscape:connector-curvature="0" /><path
             id="path4403"
             d="m 954.5661,78.4832 a 13,13 0 0 1 -13,13 13,13 0 0 1 -13,-13 13,13 0 0 1 13,-13 13,13 0 0 1 13,13 z"
             style="fill:#54ba62;stroke:none;stroke-opacity:1"
             inkscape:connector-curvature="0" /></g></g></g><g
       id="g3"
       transform="matrix(0.56853179,0,0,0.51586754,397.17137,181.52879)"><g
         id="g7"
         transform="matrix(1.6369189,0,0,1.794649,-379.36336,-250.46879)"><path
           stroke-miterlimit="10"
           d="m 548.55255,311.82705 c 0.593,2.915 0.903,6.36295 0.903,9.45195 0,24.805 -22.47261,48.66612 -47.13461,48.66612 -24.662,0 -45.60152,-22.40149 -45.60152,-48.66612 0,-26.26357 21.45896,-46.98903 46.12096,-46.98903 12.271,0 24.85306,5.70317 32.94206,13.78017 L 540.59,283.435 c -9.699,-9.937 -23.172,-16.108 -38.05,-16.108 -29.474,0 -53.45068,24.203 -53.45068,53.952 0,29.749 23.97768,53.952 53.45068,53.952 29.473,0 53.451,-24.203 53.451,-53.952 0,-5.441 -0.811,-10.693 -2.301,-15.648 z"
           id="path15"
           inkscape:connector-curvature="0"
           style="fill:#2ff234;fill-opacity:1;stroke:none;stroke-width:1.26548982;stroke-miterlimit:10;stroke-dasharray:none"
           sodipodi:nodetypes="cssssccsssscc" /><path
           style="color:#000000;font-style:normal;font-variant:normal;font-weight:normal;font-stretch:normal;font-size:medium;line-height:normal;font-family:sans-serif;text-indent:0;text-align:start;text-decoration:none;text-decoration-line:none;text-decoration-style:solid;text-decoration-color:#000000;letter-spacing:normal;word-spacing:normal;text-transform:none;direction:ltr;block-progression:tb;writing-mode:lr-tb;baseline-shift:baseline;text-anchor:start;white-space:normal;clip-rule:nonzero;display:inline;overflow:visible;visibility:visible;opacity:1;isolation:auto;mix-blend-mode:normal;color-interpolation:sRGB;color-interpolation-filters:linearRGB;solid-color:#000000;solid-opacity:1;fill:#2f3234;fill-opacity:1;fill-rule:nonzero;stroke:none;stroke-width:8.21273708;stroke-linecap:butt;stroke-linejoin:miter;stroke-miterlimit:10;stroke-dasharray:none;stroke-dashoffset:0;stroke-opacity:1;color-rendering:auto;image-rendering:auto;shape-rendering:auto;text-rendering:auto;enable-background:accumulate"
           d="m 486.08789,214.875 c -20.18758,0 -36.59766,16.41984 -36.59766,36.58398 0,20.16415 16.41008,36.584 36.59766,36.58399 20.18759,10e-6 36.59766,-16.41984 36.59766,-36.58399 0,-4.27333 -0.74382,-8.37505 -2.09766,-12.1914 l -4.55469,4.0039 c 0.70796,2.60819 1.0918,5.35071 1.0918,8.1875 0,17.19022 -13.87033,31.05275 -31.03711,31.05274 -17.16677,10e-6 -31.03711,-13.86252 -31.03711,-31.05274 0,-17.19021 13.87034,-31.05273 31.03711,-31.05273 9.34991,0 17.71455,4.11834 23.40039,10.64063 l 4.14063,-3.64063 C 506.9165,219.73553 497.06409,214.875 486.08789,214.875 Z"
           transform="matrix(1.4769846,0,0,1.484705,-215.19778,-52.018283)"
           id="path4204"
           inkscape:connector-curvature="0" /><g
           id="g9"><path
             style="fill:#54ba62"
             d="m 496.699,347.35 -20.839,-28.495 7.06,-6.436 20.84,28.494 z"
             id="polygon11"
             inkscape:connector-curvature="0" /><path
             style="fill:#54ba62"
             d="m 558.16,292.825 -59.929,52.946 -5.71,-8.196 59.928,-52.945 z"
             id="polygon13"
             inkscape:connector-curvature="0" /><path
             style="fill:#54ba62;fill-opacity:1"
             d="m 558.16,292.825 -59.929,52.946 -5.71,-8.196 59.928,-52.945 z"
             id="polygon4217"
             inkscape:connector-curvature="0" /></g></g></g></g></svg>