<?xml version="1.0" encoding="UTF-8" standalone="no"?>
<!-- Generator: Adobe Illustrator 16.0.0, SVG Export Plug-In . SVG Version: 6.00 Build 0)  -->

<svg
   xmlns:dc="http://purl.org/dc/elements/1.1/"
   xmlns:cc="http://creativecommons.org/ns#"
   xmlns:rdf="http://www.w3.org/1999/02/22-rdf-syntax-ns#"
   xmlns:svg="http://www.w3.org/2000/svg"
   xmlns="http://www.w3.org/2000/svg"
   xmlns:sodipodi="http://sodipodi.sourceforge.net/DTD/sodipodi-0.dtd"
   xmlns:inkscape="http://www.inkscape.org/namespaces/inkscape"
   version="1.1"
   id="Layer_1"
   x="0px"
   y="0px"
   width="612px"
   height="792px"
   viewBox="0 0 612 792"
   enable-background="new 0 0 612 792"
   xml:space="preserve"
   inkscape:version="0.91 r13725"
   sodipodi:docname="check.svg"
   inkscape:export-filename="/Users/michael/Desktop/letters.png"
   inkscape:export-xdpi="90"
   inkscape:export-ydpi="90"><metadata
     id="metadata21"><rdf:RDF><cc:Work
         rdf:about=""><dc:format>image/svg+xml</dc:format><dc:type
           rdf:resource="http://purl.org/dc/dcmitype/StillImage" /><dc:title></dc:title></cc:Work></rdf:RDF></metadata><defs
     id="defs19" /><sodipodi:namedview
     pagecolor="#ffffff"
     bordercolor="#666666"
     borderopacity="1"
     objecttolerance="10"
     gridtolerance="10"
     guidetolerance="10"
     inkscape:pageopacity="0"
     inkscape:pageshadow="2"
     inkscape:window-width="1366"
     inkscape:window-height="659"
     id="namedview17"
     showgrid="false"
     inkscape:zoom="1.4142136"
     inkscape:cx="335.54568"
     inkscape:cy="526.54363"
     inkscape:window-x="0"
     inkscape:window-y="0"
     inkscape:window-maximized="1"
     inkscape:current-layer="g3"
     showguides="false"><inkscape:grid
       type="xygrid"
       id="grid4230" /></sodipodi:namedview><g
     id="g3"
     transform="matrix(0.73717827,0,0,0.66889195,-21.826479,177.81063)"><g
       id="g7"
       transform="matrix(1.6369189,0,0,1.794649,-379.36336,-250.46879)"><path
         stroke-miterlimit="10"
         d="m 548.55255,311.82705 c 0.593,2.915 0.903,6.36295 0.903,9.45195 0,24.805 -22.47261,48.66612 -47.13461,48.66612 -24.662,0 -45.60152,-22.40149 -45.60152,-48.66612 0,-26.26357 21.45896,-46.98903 46.12096,-46.98903 12.271,0 24.85306,5.70317 32.94206,13.78017 L 540.59,283.435 c -9.699,-9.937 -23.172,-16.108 -38.05,-16.108 -29.474,0 -53.45068,24.203 -53.45068,53.952 0,29.749 23.97768,53.952 53.45068,53.952 29.473,0 53.451,-24.203 53.451,-53.952 0,-5.441 -0.811,-10.693 -2.301,-15.648 z"
         id="path15"
         inkscape:connector-curvature="0"
         style="fill:#2ff234;fill-opacity:1;stroke:none;stroke-width:1.26548982;stroke-miterlimit:10;stroke-dasharray:none"
         sodipodi:nodetypes="cssssccsssscc" /><path
         style="color:#000000;font-style:normal;font-variant:normal;font-weight:normal;font-stretch:normal;font-size:medium;line-height:normal;font-family:sans-serif;text-indent:0;text-align:start;text-decoration:none;text-decoration-line:none;text-decoration-style:solid;text-decoration-color:#000000;letter-spacing:normal;word-spacing:normal;text-transform:none;direction:ltr;block-progression:tb;writing-mode:lr-tb;baseline-shift:baseline;text-anchor:start;white-space:normal;clip-rule:nonzero;display:inline;overflow:visible;visibility:visible;opacity:1;isolation:auto;mix-blend-mode:normal;color-interpolation:sRGB;color-interpolation-filters:linearRGB;solid-color:#000000;solid-opacity:1;fill:#2f3234;fill-opacity:1;fill-rule:nonzero;stroke:none;stroke-width:8.21273708;stroke-linecap:butt;stroke-linejoin:miter;stroke-miterlimit:10;stroke-dasharray:none;stroke-dashoffset:0;stroke-opacity:1;color-rendering:auto;image-rendering:auto;shape-rendering:auto;text-rendering:auto;enable-background:accumulate"
         d="m 486.08789,214.875 c -20.18758,0 -36.59766,16.41984 -36.59766,36.58398 0,20.16415 16.41008,36.584 36.59766,36.58399 20.18759,10e-6 36.59766,-16.41984 36.59766,-36.58399 0,-4.27333 -0.74382,-8.37505 -2.09766,-12.1914 l -4.55469,4.0039 c 0.70796,2.60819 1.0918,5.35071 1.0918,8.1875 0,17.19022 -13.87033,31.05275 -31.03711,31.05274 -17.16677,10e-6 -31.03711,-13.86252 -31.03711,-31.05274 0,-17.19021 13.87034,-31.05273 31.03711,-31.05273 9.34991,0 17.71455,4.11834 23.40039,10.64063 l 4.14063,-3.64063 C 506.9165,219.73553 497.06409,214.875 486.08789,214.875 Z"
         transform="matrix(1.4769846,0,0,1.484705,-215.19778,-52.018283)"
         id="path4204"
         inkscape:connector-curvature="0" /><g
         id="g9"><path
           style="fill:#54ba62"
           d="m 496.699,347.35 -20.839,-28.495 7.06,-6.436 20.84,28.494 z"
           id="polygon11"
           inkscape:connector-curvature="0" /><path
           style="fill:#54ba62"
           d="m 558.16,292.825 -59.929,52.946 -5.71,-8.196 59.928,-52.945 z"
           id="polygon13"
           inkscape:connector-curvature="0" /><path
           style="fill:#54ba62;fill-opacity:1"
           d="m 558.16,292.825 -59.929,52.946 -5.71,-8.196 59.928,-52.945 z"
           id="polygon4217"
           inkscape:connector-curvature="0" /></g></g></g></svg>