<?xml version="1.0" encoding="UTF-8" standalone="no"?>
<!-- Generator: Adobe Illustrator 16.0.0, SVG Export Plug-In . SVG Version: 6.00 Build 0)  -->

<svg
   xmlns:dc="http://purl.org/dc/elements/1.1/"
   xmlns:cc="http://creativecommons.org/ns#"
   xmlns:rdf="http://www.w3.org/1999/02/22-rdf-syntax-ns#"
   xmlns:svg="http://www.w3.org/2000/svg"
   xmlns="http://www.w3.org/2000/svg"
   xmlns:sodipodi="http://sodipodi.sourceforge.net/DTD/sodipodi-0.dtd"
   xmlns:inkscape="http://www.inkscape.org/namespaces/inkscape"
   version="1.1"
   id="Layer_1"
   x="0px"
   y="0px"
   width="405.74246"
   height="72.422974"
   viewBox="0 0 405.74246 72.422974"
   enable-background="new 0 0 612 792"
   xml:space="preserve"
   inkscape:version="0.91 r13725"
   sodipodi:docname="letters.svg"
   inkscape:export-filename="/Users/michael/Desktop/assets/letters.png"
   inkscape:export-xdpi="90"
   inkscape:export-ydpi="90"><metadata
     id="metadata21"><rdf:RDF><cc:Work
         rdf:about=""><dc:format>image/svg+xml</dc:format><dc:type
           rdf:resource="http://purl.org/dc/dcmitype/StillImage" /><dc:title></dc:title></cc:Work></rdf:RDF></metadata><defs
     id="defs19" /><sodipodi:namedview
     pagecolor="#969696"
     bordercolor="#666666"
     borderopacity="1"
     objecttolerance="10"
     gridtolerance="10"
     guidetolerance="10"
     inkscape:pageopacity="0"
     inkscape:pageshadow="2"
     inkscape:window-width="1366"
     inkscape:window-height="659"
     id="namedview17"
     showgrid="false"
     inkscape:zoom="1.4142136"
     inkscape:cx="94.884656"
     inkscape:cy="71.29571"
     inkscape:window-x="0"
     inkscape:window-y="0"
     inkscape:window-maximized="1"
     inkscape:current-layer="Layer_1"
     showguides="false"
     fit-margin-top="0"
     fit-margin-left="0"
     fit-margin-right="0"
     fit-margin-bottom="0"><inkscape:grid
       type="xygrid"
       id="grid4230"
       originx="-103.12876"
       originy="-359.78851" /></sodipodi:namedview><g
     id="g3"
     transform="matrix(0.73717827,0,0,0.66889195,-124.95524,-181.97789)"><g
       transform="matrix(1.0266863,0,0,0.97400732,-0.339131,2.9900195)"
       style="font-size:148.47744751px;line-height:125%;font-family:BubblerOne;fill:#ffffff;fill-opacity:1"
       id="text5"><path
         d="m 165.42922,384.63046 0,-105.99344 28.63707,0 q 25.37463,0 38.56944,13.26731 13.2673,13.2673 13.2673,38.71443 0,26.67961 -13.99229,40.3819 -13.9923,13.6298 -41.1069,13.6298 l -25.37462,0 z m 7.39489,-6.5249 17.54474,0 q 47.4868,0 47.4868,-47.19681 0,-22.76466 -11.59983,-34.21949 -11.52733,-11.52733 -33.9295,-11.52733 l -19.50221,0 0,92.94363 z"
         style="font-style:normal;font-variant:normal;font-weight:300;font-stretch:normal;font-size:148.47781372px;line-height:125%;font-family:'Open Sans';-inkscape-font-specification:'Open Sans, Light';text-align:start;writing-mode:lr-tb;text-anchor:start;fill:#ffffff;fill-opacity:1"
         id="path4207"
         inkscape:connector-curvature="0" /><path
         d="m 269.17519,346.93102 0,-68.294 7.46739,0 0,68.58399 q 0,15.29728 8.48237,23.85215 8.48238,8.48238 23.99715,8.48238 15.15228,0 23.48965,-8.33738 8.33738,-8.40988 8.33738,-23.27216 l 0,-69.30898 7.39489,0 0,68.58399 q 0,18.26973 -10.58484,28.56458 -10.58485,10.29485 -29.50707,10.29485 -18.41473,0 -28.78207,-10.29485 -10.29485,-10.36734 -10.29485,-28.85457 z"
         style="font-style:normal;font-variant:normal;font-weight:300;font-stretch:normal;font-size:148.47781372px;line-height:125%;font-family:'Open Sans';-inkscape-font-specification:'Open Sans, Light';text-align:start;writing-mode:lr-tb;text-anchor:start;fill:#ffffff;fill-opacity:1"
         id="path4209"
         inkscape:connector-curvature="0" /><path
         d="m 377.1261,384.63046 0,-105.99344 7.39489,0 62.71158,93.95862 0.43499,0 q -0.65249,-13.04981 -0.65249,-24.79464 l 0,-69.16398 7.17739,0 0,105.99344 -7.46739,0 -62.78407,-94.10361 -0.57999,0 q 0.86998,16.81975 0.86998,25.37462 l 0,68.72899 -7.10489,0 z"
         style="font-style:normal;font-variant:normal;font-weight:300;font-stretch:normal;font-size:148.47781372px;line-height:125%;font-family:'Open Sans';-inkscape-font-specification:'Open Sans, Light';text-align:start;writing-mode:lr-tb;text-anchor:start;fill:#ffffff;fill-opacity:1"
         id="path4211"
         inkscape:connector-curvature="0" /><path
         d="m 484.42452,384.63046 0,-105.99344 11.45483,0 37.55444,93.23363 0.435,0 37.55444,-93.23363 11.16484,0 0,105.99344 -7.46739,0 0,-80.32881 q 0,-8.40988 0.86999,-17.39975 l -0.57999,0 -39.65692,97.72856 -4.71243,0 -39.51192,-97.87356 -0.57999,0 q 0.57999,8.98987 0.57999,18.41473 l 0,79.45883 -7.10489,0 z"
         style="font-style:normal;font-variant:normal;font-weight:300;font-stretch:normal;font-size:148.47781372px;line-height:125%;font-family:'Open Sans';-inkscape-font-specification:'Open Sans, Light';text-align:start;writing-mode:lr-tb;text-anchor:start;fill:#ffffff;fill-opacity:1"
         id="path4213"
         inkscape:connector-curvature="0" /></g><g
       id="g7"
       transform="matrix(0.90908993,0,0,0.99668793,212.48654,5.9353634)"><path
         stroke-miterlimit="10"
         d="m 548.55255,311.82705 c 0.593,2.915 0.903,6.36295 0.903,9.45195 0,24.805 -22.47261,48.66612 -47.13461,48.66612 -24.662,0 -45.60152,-22.40149 -45.60152,-48.66612 0,-26.26357 21.45896,-46.98903 46.12096,-46.98903 12.271,0 24.85306,5.70317 32.94206,13.78017 L 540.59,283.435 c -9.699,-9.937 -23.172,-16.108 -38.05,-16.108 -29.474,0 -53.45068,24.203 -53.45068,53.952 0,29.749 23.97768,53.952 53.45068,53.952 29.473,0 53.451,-24.203 53.451,-53.952 0,-5.441 -0.811,-10.693 -2.301,-15.648 z"
         id="path15"
         inkscape:connector-curvature="0"
         style="fill:#2ff234;fill-opacity:1;stroke:none;stroke-width:1.26548982;stroke-miterlimit:10;stroke-dasharray:none"
         sodipodi:nodetypes="cssssccsssscc" /><path
         style="color:#000000;font-style:normal;font-variant:normal;font-weight:normal;font-stretch:normal;font-size:medium;line-height:normal;font-family:sans-serif;text-indent:0;text-align:start;text-decoration:none;text-decoration-line:none;text-decoration-style:solid;text-decoration-color:#000000;letter-spacing:normal;word-spacing:normal;text-transform:none;direction:ltr;block-progression:tb;writing-mode:lr-tb;baseline-shift:baseline;text-anchor:start;white-space:normal;clip-rule:nonzero;display:inline;overflow:visible;visibility:visible;opacity:1;isolation:auto;mix-blend-mode:normal;color-interpolation:sRGB;color-interpolation-filters:linearRGB;solid-color:#000000;solid-opacity:1;fill:#ffffff;fill-opacity:1;fill-rule:nonzero;stroke:none;stroke-width:8.21273708;stroke-linecap:butt;stroke-linejoin:miter;stroke-miterlimit:10;stroke-dasharray:none;stroke-dashoffset:0;stroke-opacity:1;color-rendering:auto;image-rendering:auto;shape-rendering:auto;text-rendering:auto;enable-background:accumulate"
         d="m 486.08789,214.875 c -20.18758,0 -36.59766,16.41984 -36.59766,36.58398 0,20.16415 16.41008,36.584 36.59766,36.58399 20.18759,10e-6 36.59766,-16.41984 36.59766,-36.58399 0,-4.27333 -0.74382,-8.37505 -2.09766,-12.1914 l -4.55469,4.0039 c 0.70796,2.60819 1.0918,5.35071 1.0918,8.1875 0,17.19022 -13.87033,31.05275 -31.03711,31.05274 -17.16677,10e-6 -31.03711,-13.86252 -31.03711,-31.05274 0,-17.19021 13.87034,-31.05273 31.03711,-31.05273 9.34991,0 17.71455,4.11834 23.40039,10.64063 l 4.14063,-3.64063 C 506.9165,219.73553 497.06409,214.875 486.08789,214.875 Z"
         transform="matrix(1.4769846,0,0,1.484705,-215.19778,-52.018283)"
         id="path4204"
         inkscape:connector-curvature="0" /><g
         id="g9"><path
           style="fill:#54ba62"
           d="m 496.699,347.35 -20.839,-28.495 7.06,-6.436 20.84,28.494 z"
           id="polygon11"
           inkscape:connector-curvature="0" /><path
           style="fill:#54ba62"
           d="m 558.16,292.825 -59.929,52.946 -5.71,-8.196 59.928,-52.945 z"
           id="polygon13"
           inkscape:connector-curvature="0" /><path
           style="fill:#54ba62;fill-opacity:1"
           d="m 558.16,292.825 -59.929,52.946 -5.71,-8.196 59.928,-52.945 z"
           id="polygon4217"
           inkscape:connector-curvature="0" /></g></g></g></svg>