<?xml version="1.0" encoding="UTF-8" standalone="no"?>
<!-- Generator: Adobe Illustrator 16.0.0, SVG Export Plug-In . SVG Version: 6.00 Build 0)  -->

<svg
   xmlns:dc="http://purl.org/dc/elements/1.1/"
   xmlns:cc="http://creativecommons.org/ns#"
   xmlns:rdf="http://www.w3.org/1999/02/22-rdf-syntax-ns#"
   xmlns:svg="http://www.w3.org/2000/svg"
   xmlns="http://www.w3.org/2000/svg"
   xmlns:sodipodi="http://sodipodi.sourceforge.net/DTD/sodipodi-0.dtd"
   xmlns:inkscape="http://www.inkscape.org/namespaces/inkscape"
   version="1.1"
   x="0px"
   y="0px"
   width="2000px"
   height="1200px"
   viewBox="0 0 2000 1200"
   enable-background="new 0 0 2000 1200"
   xml:space="preserve"
   id="svg2"
   inkscape:version="0.91 r13725"
   sodipodi:docname="DunmoFullVert.svg"><metadata
     id="metadata95"><rdf:RDF><cc:Work
         rdf:about=""><dc:format>image/svg+xml</dc:format><dc:type
           rdf:resource="http://purl.org/dc/dcmitype/StillImage" /><dc:title></dc:title></cc:Work></rdf:RDF></metadata><defs
     id="defs93" /><sodipodi:namedview
     pagecolor="#ffffff"
     bordercolor="#666666"
     borderopacity="1"
     objecttolerance="10"
     gridtolerance="10"
     guidetolerance="10"
     inkscape:pageopacity="0"
     inkscape:pageshadow="2"
     inkscape:window-width="1366"
     inkscape:window-height="659"
     id="namedview91"
     showgrid="false"
     inkscape:zoom="0.38749452"
     inkscape:cx="955.99366"
     inkscape:cy="611.85372"
     inkscape:window-x="0"
     inkscape:window-y="0"
     inkscape:window-maximized="1"
     inkscape:current-layer="svg2" /><g
     id="Layer_3"
     display="none"><rect
       display="inline"
       fill="#54BA62"
       width="2000"
       height="1200"
       id="rect5" /></g><g
     id="Layer_1"
     transform="translate(1.821052e-5,18.766921)"><g
       id="g3587"
       transform="translate(21.999805,88.637972)"><g
         id="Layer_3-5"
         display="none"
         style="display:none"
         transform="translate(0,-550)"><rect
           display="inline"
           width="2000"
           height="1200"
           id="rect5-6"
           x="0"
           y="0"
           style="display:inline;fill:#54ba62" /></g><g
         style="display:none"
         id="Layer_3-4"
         display="none"
         transform="translate(797.63736,-527.30956)"><rect
           style="display:inline;fill:#54ba62"
           y="0"
           x="0"
           display="inline"
           width="2000"
           height="1200"
           id="rect4356" /></g><g
         transform="matrix(0.9985724,0,0,0.9985724,50.913324,-19.505438)"
         id="g4641"><g
           id="g4673"
           transform="translate(2.0524448,-10.461627)"><path
             inkscape:connector-curvature="0"
             id="path4675"
             d="m 1035.1441,350.76953 -1.2301,21.95899 c 0,0 13.6174,0.12372 23.6172,9.30859 9.9999,9.18487 21.6172,33.88397 21.6172,75.44713 0,0 4.9609,-1.67448 10.9692,-1.67448 6.0083,0 11.0308,1.67459 11.0308,1.67459 0,-46.21139 -13.8828,-76.88625 -29.3828,-91.12302 -15.5,-14.23678 -36.6215,-15.5918 -36.6215,-15.5918 z"
             style="color:#000000;font-style:normal;font-variant:normal;font-weight:normal;font-stretch:normal;font-size:medium;line-height:normal;font-family:sans-serif;text-indent:0;text-align:start;text-decoration:none;text-decoration-line:none;text-decoration-style:solid;text-decoration-color:#000000;letter-spacing:normal;word-spacing:normal;text-transform:none;direction:ltr;block-progression:tb;writing-mode:lr-tb;baseline-shift:baseline;text-anchor:start;white-space:normal;clip-rule:nonzero;display:inline;overflow:visible;visibility:visible;opacity:1;isolation:auto;mix-blend-mode:normal;color-interpolation:sRGB;color-interpolation-filters:linearRGB;solid-color:#000000;solid-opacity:1;fill:#ffffff;fill-opacity:1;fill-rule:evenodd;stroke:#646464;stroke-width:2.00285935;stroke-linecap:butt;stroke-linejoin:miter;stroke-miterlimit:4;stroke-dasharray:none;stroke-dashoffset:0;stroke-opacity:1;color-rendering:auto;image-rendering:auto;shape-rendering:auto;text-rendering:auto;enable-background:accumulate" /><path
             inkscape:connector-curvature="0"
             style="color:#000000;font-style:normal;font-variant:normal;font-weight:normal;font-stretch:normal;font-size:medium;line-height:normal;font-family:sans-serif;text-indent:0;text-align:start;text-decoration:none;text-decoration-line:none;text-decoration-style:solid;text-decoration-color:#000000;letter-spacing:normal;word-spacing:normal;text-transform:none;direction:ltr;block-progression:tb;writing-mode:lr-tb;baseline-shift:baseline;text-anchor:start;white-space:normal;clip-rule:nonzero;display:inline;overflow:visible;visibility:visible;opacity:1;isolation:auto;mix-blend-mode:normal;color-interpolation:sRGB;color-interpolation-filters:linearRGB;solid-color:#000000;solid-opacity:1;fill:#ffffff;fill-opacity:1;fill-rule:evenodd;stroke:#646464;stroke-width:2.00285935;stroke-linecap:butt;stroke-linejoin:miter;stroke-miterlimit:4;stroke-dasharray:none;stroke-dashoffset:0;stroke-opacity:1;color-rendering:auto;image-rendering:auto;shape-rendering:auto;text-rendering:auto;enable-background:accumulate"
             d="m 1090.2129,454.19922 c -15.5385,0 -25.5113,8.50464 -29.7715,16.62305 -4.2602,8.1184 -4.1582,16.07226 -4.1582,16.07226 l 15.6484,-0.002 c 0,0 0.1001,-4.48221 2.3653,-8.79883 2.2652,-4.31662 5.346,-8.24609 15.916,-8.24609 10.5947,0 13.6688,3.93055 15.9277,8.24218 2.259,4.31164 2.3535,8.78907 2.3535,8.78907 l 15.6485,0.0293 c 0,0 0.1154,-7.95668 -4.1406,-16.08008 -4.2561,-8.12339 -14.2337,-16.6289 -29.7891,-16.6289 z"
             id="path4677" /></g><g
           transform="matrix(-1,0,0,1,1854.7721,-10.461627)"
           id="g4667"><path
             inkscape:connector-curvature="0"
             style="color:#000000;font-style:normal;font-variant:normal;font-weight:normal;font-stretch:normal;font-size:medium;line-height:normal;font-family:sans-serif;text-indent:0;text-align:start;text-decoration:none;text-decoration-line:none;text-decoration-style:solid;text-decoration-color:#000000;letter-spacing:normal;word-spacing:normal;text-transform:none;direction:ltr;block-progression:tb;writing-mode:lr-tb;baseline-shift:baseline;text-anchor:start;white-space:normal;clip-rule:nonzero;display:inline;overflow:visible;visibility:visible;opacity:1;isolation:auto;mix-blend-mode:normal;color-interpolation:sRGB;color-interpolation-filters:linearRGB;solid-color:#000000;solid-opacity:1;fill:#ffffff;fill-opacity:1;fill-rule:evenodd;stroke:#646464;stroke-width:2.00285935;stroke-linecap:butt;stroke-linejoin:miter;stroke-miterlimit:4;stroke-dasharray:none;stroke-dashoffset:0;stroke-opacity:1;color-rendering:auto;image-rendering:auto;shape-rendering:auto;text-rendering:auto;enable-background:accumulate"
             d="m 1035.7588,350.76953 -1.2301,21.95899 c 0,0 13.0027,0.12372 23.0025,9.30859 9.9999,9.18487 21.6172,33.88397 21.6172,75.44713 0,0 4.9609,-1.67448 10.9692,-1.67448 6.0083,0 11.0308,1.67459 11.0308,1.67459 0,-46.21139 -13.8828,-76.88625 -29.3828,-91.12302 -15.5,-14.23678 -36.0068,-15.5918 -36.0068,-15.5918 z"
             id="path4669" /><path
             inkscape:connector-curvature="0"
             style="color:#000000;font-style:normal;font-variant:normal;font-weight:normal;font-stretch:normal;font-size:medium;line-height:normal;font-family:sans-serif;text-indent:0;text-align:start;text-decoration:none;text-decoration-line:none;text-decoration-style:solid;text-decoration-color:#000000;letter-spacing:normal;word-spacing:normal;text-transform:none;direction:ltr;block-progression:tb;writing-mode:lr-tb;baseline-shift:baseline;text-anchor:start;white-space:normal;clip-rule:nonzero;display:inline;overflow:visible;visibility:visible;opacity:1;isolation:auto;mix-blend-mode:normal;color-interpolation:sRGB;color-interpolation-filters:linearRGB;solid-color:#000000;solid-opacity:1;fill:#ffffff;fill-opacity:1;fill-rule:evenodd;stroke:#646464;stroke-width:2.00285935;stroke-linecap:butt;stroke-linejoin:miter;stroke-miterlimit:4;stroke-dasharray:none;stroke-dashoffset:0;stroke-opacity:1;color-rendering:auto;image-rendering:auto;shape-rendering:auto;text-rendering:auto;enable-background:accumulate"
             d="m 1090.2129,454.19922 c -15.5385,0 -25.5113,8.50464 -29.7715,16.62305 -4.2602,8.1184 -4.1582,16.07226 -4.1582,16.07226 l 15.6484,-0.002 c 0,0 0.1001,-4.48221 2.3653,-8.79883 2.2652,-4.31662 5.346,-8.24609 15.916,-8.24609 10.5947,0 13.6688,3.93055 15.9277,8.24218 2.259,4.31164 2.3535,8.78907 2.3535,8.78907 l 15.6485,0.0293 c 0,0 0.1154,-7.95668 -4.1406,-16.08008 -4.2561,-8.12339 -14.2337,-16.6289 -29.7891,-16.6289 z"
             id="path4671" /></g><path
           inkscape:connector-curvature="0"
           style="fill:#ffffff;fill-opacity:1;fill-rule:evenodd;stroke:#646464;stroke-width:1.8845396;stroke-linecap:butt;stroke-linejoin:miter;stroke-miterlimit:4;stroke-dasharray:none;stroke-opacity:1"
           d="m 825.89159,299.98089 c 67.85843,0 203.57451,0 203.57451,0 4.2825,0 8.9264,5.21029 8.8516,10.00254 -0.6055,32.66294 0.1358,290.0757 -110.63863,290.0757 -110.60818,0 -110.63848,-290.0757 -110.63848,-290.0757 0,-4.97936 4.43398,-10.00254 8.851,-10.00254 z"
           id="path4643" /><g
           id="g4645"
           transform="matrix(0.67700223,0,0,0.67700223,253.76263,85.728044)"><g
             id="g4647"><path
               inkscape:connector-curvature="0"
               style="fill:#54ba62"
               d="m 972.49805,335.00781 -49.53907,44.73242 -13.5625,-18.95507 -6.40625,5.9707 18.91211,26.43164 6.40625,-5.9707 -0.01,-0.0137 49.38086,-44.59374 -5.18164,-7.60157 z"
               transform="matrix(1.4771,0,0,1.4771,-374.83278,-126.62889)"
               id="path4649" /></g><path
             inkscape:connector-curvature="0"
             stroke-miterlimit="10"
             d="m 1053.483,406.07 c 0.796,3.994 1.212,8.125 1.212,12.356 0,33.987 -26.896,61.638 -59.955,61.638 -33.059,0 -59.956,-27.65 -59.956,-61.638 0,-33.986 26.897,-61.636 59.956,-61.636 16.45,0 31.37,6.849 42.214,17.915 l 8.793,-8.13 c -13.003,-13.614 -31.062,-22.071 -51.007,-22.071 -39.509,0 -71.652,33.162 -71.652,73.923 0,40.762 32.143,73.924 71.652,73.924 39.509,0 71.653,-33.163 71.653,-73.924 0,-7.455 -1.087,-14.65 -3.085,-21.44 l -9.825,9.083 z"
             id="path4651"
             style="fill:#2f3234;stroke:#ffffff;stroke-width:3;stroke-miterlimit:10" /></g><g
           id="g4653"
           transform="matrix(0.9264593,0,0,0.9264593,85.86144,28.611329)"><g
             transform="translate(-11.919031,-0.30690399)"
             id="g4661"
             style="stroke:none;stroke-opacity:1"><path
               inkscape:connector-curvature="0"
               style="color:#000000;font-style:normal;font-variant:normal;font-weight:normal;font-stretch:normal;font-size:medium;line-height:normal;font-family:sans-serif;text-indent:0;text-align:start;text-decoration:none;text-decoration-line:none;text-decoration-style:solid;text-decoration-color:#000000;letter-spacing:normal;word-spacing:normal;text-transform:none;direction:ltr;block-progression:tb;writing-mode:lr-tb;baseline-shift:baseline;text-anchor:start;white-space:normal;clip-rule:nonzero;display:inline;overflow:visible;visibility:visible;opacity:1;isolation:auto;mix-blend-mode:normal;color-interpolation:sRGB;color-interpolation-filters:linearRGB;solid-color:#000000;solid-opacity:1;fill:#ffffff;fill-opacity:1;fill-rule:evenodd;stroke:#646464;stroke-width:2.16184282;stroke-linecap:butt;stroke-linejoin:round;stroke-miterlimit:4;stroke-dasharray:none;stroke-dashoffset:0;stroke-opacity:1;color-rendering:auto;image-rendering:auto;shape-rendering:auto;text-rendering:auto;enable-background:accumulate"
               d="m 938.37695,76.685547 c -11.81681,6.982664 -16.59569,21.205141 -19.10547,33.183593 -2.50977,11.97845 -2.49609,22.42188 -2.49609,22.42188 l 10.19922,0 c 0,0 0.0148,-9.52208 2.2793,-20.33008 2.26453,-10.80801 7.03209,-22.192085 14.3125,-26.494143 l -5.18946,-8.78125 z"
               id="path4663" /><path
               inkscape:connector-curvature="0"
               style="fill:#54ba62;stroke:none;stroke-opacity:1"
               d="m 954.5661,78.4832 a 13,13 0 0 1 -13,13 13,13 0 0 1 -13,-13 13,13 0 0 1 13,-13 13,13 0 0 1 13,13 z"
               id="path4665" /></g><path
             inkscape:connector-curvature="0"
             style="fill:#ffffff;stroke:#646464;stroke-width:2.03413129;stroke-miterlimit:10;stroke-dasharray:none;stroke-opacity:1"
             id="path4655"
             d="m 1026.5803,235.89305 c 0,23.04498 -16.2047,41.72493 -36.19433,41.72493 l -163.49128,0 c -19.98933,0 -36.19459,-18.68095 -36.19459,-41.72493 l 0,-62.58739 c 0,-23.04495 16.20526,-41.72491 36.19459,-41.72491 l 163.49128,0 c 19.98963,0 36.19433,18.68096 36.19433,41.72491 l 0,62.58739 z"
             stroke-miterlimit="10" /><path
             inkscape:connector-curvature="0"
             id="path4657"
             d="m 873.57796,188.17867 a 20.329,21.306 0 0 1 -20.329,21.30599 20.329,21.306 0 0 1 -20.329,-21.30599 20.329,21.306 0 0 1 20.329,-21.306 20.329,21.306 0 0 1 20.329,21.306 z"
             style="fill:#54ba62" /><path
             inkscape:connector-curvature="0"
             id="path4659"
             d="m 981.78145,188.17967 a 20.329,21.306 0 0 1 -20.329,21.306 20.329,21.306 0 0 1 -20.32902,-21.306 20.329,21.306 0 0 1 20.32902,-21.306 20.329,21.306 0 0 1 20.329,21.306 z"
             style="fill:#54ba62" /></g></g></g><g
       transform="matrix(2.0151933,0,0,1.8285219,100.24341,311.67247)"
       id="g3"><text
         y="384.63046"
         x="150.42194"
         sodipodi:linespacing="125%"
         style="font-size:148.47744751px;line-height:125%;font-family:BubblerOne;fill:#2f3234"
         id="text5"
         font-size="145.5297"
         transform="scale(1.0266863,0.97400732)"><tspan
           id="tspan4149"
           style="font-style:normal;font-variant:normal;font-weight:300;font-stretch:normal;font-size:148.47781372px;line-height:125%;font-family:'Open Sans';-inkscape-font-specification:'Open Sans, Light';text-align:start;writing-mode:lr-tb;text-anchor:start">DUNM</tspan></text>
<g
         transform="matrix(0.91844154,0,0,1.0242593,210.49173,-6.1001257)"
         id="g7"><g
           id="g9"><polygon
             style="fill:#54ba62"
             id="polygon11"
             points="475.86,318.855 482.92,312.419 503.76,340.913 496.699,347.35 " /><polygon
             style="fill:#54ba62"
             id="polygon13"
             points="498.231,345.771 492.521,337.575 552.449,284.63 558.16,292.825 " /></g><path
           style="fill:#2f3234;stroke:#ffffff;stroke-width:1.26548982;stroke-miterlimit:10;stroke-dasharray:none"
           inkscape:connector-curvature="0"
           id="path15"
           d="m 546.362,312.26 c 0.593,2.915 0.903,5.93 0.903,9.019 0,24.805 -20.063,44.986 -44.725,44.986 -24.662,0 -44.726,-20.181 -44.726,-44.986 0,-24.804 20.064,-44.985 44.726,-44.985 12.271,0 23.401,4.998 31.49,13.075 l 6.56,-5.934 c -9.699,-9.937 -23.172,-16.108 -38.05,-16.108 -29.474,0 -53.45,24.203 -53.45,53.952 0,29.749 23.977,53.952 53.45,53.952 29.473,0 53.451,-24.203 53.451,-53.952 0,-5.441 -0.811,-10.693 -2.301,-15.648 l -7.328,6.629 z"
           stroke-miterlimit="10" /></g></g></g><g
     id="Layer_2" /></svg>