<?xml version="1.0" encoding="UTF-8" standalone="no"?>
<!-- Generator: Adobe Illustrator 16.0.0, SVG Export Plug-In . SVG Version: 6.00 Build 0)  -->

<svg
   xmlns:dc="http://purl.org/dc/elements/1.1/"
   xmlns:cc="http://creativecommons.org/ns#"
   xmlns:rdf="http://www.w3.org/1999/02/22-rdf-syntax-ns#"
   xmlns:svg="http://www.w3.org/2000/svg"
   xmlns="http://www.w3.org/2000/svg"
   xmlns:sodipodi="http://sodipodi.sourceforge.net/DTD/sodipodi-0.dtd"
   xmlns:inkscape="http://www.inkscape.org/namespaces/inkscape"
   version="1.1"
   x="0px"
   y="0px"
   width="2200"
   height="800"
   viewBox="0 0 2200 800"
   enable-background="new 0 0 2000 1200"
   xml:space="preserve"
   id="svg2"
   inkscape:version="0.91 r13725"
   sodipodi:docname="logo_horiz_wTagLine_greenRectangle.svg"
   inkscape:export-filename="/Users/michael/Google Drive/Dunmo/Branding Guide/assets/logoHoriz_wTagLine/logo_horiz_wTagLine_greenRectangle.png"
   inkscape:export-xdpi="90"
   inkscape:export-ydpi="90"><metadata
     id="metadata95"><rdf:RDF><cc:Work
         rdf:about=""><dc:format>image/svg+xml</dc:format><dc:type
           rdf:resource="http://purl.org/dc/dcmitype/StillImage" /><dc:title></dc:title></cc:Work></rdf:RDF></metadata><defs
     id="defs93" /><sodipodi:namedview
     pagecolor="#237a29"
     bordercolor="#666666"
     borderopacity="1"
     objecttolerance="10"
     gridtolerance="10"
     guidetolerance="10"
     inkscape:pageopacity="1"
     inkscape:pageshadow="2"
     inkscape:window-width="1366"
     inkscape:window-height="659"
     id="namedview91"
     showgrid="false"
     inkscape:zoom="0.38749452"
     inkscape:cx="1408.9656"
     inkscape:cy="302.32918"
     inkscape:window-x="-2"
     inkscape:window-y="0"
     inkscape:window-maximized="0"
     inkscape:current-layer="g3380"
     fit-margin-top="0"
     fit-margin-left="0"
     fit-margin-right="0"
     fit-margin-bottom="0" /><g
     id="Layer_3"
     display="none"
     style="display:none"
     transform="translate(-183.0335,-55.16752)"><rect
       display="inline"
       width="2000"
       height="1200"
       id="rect5"
       x="0"
       y="0"
       style="display:inline;fill:#54ba62" /></g><g
     id="g3380"
     transform="translate(0,289.66497)"><g
       id="g3411"
       transform="translate(283.0335,-144.83248)"><g
         id="g3603"
         transform="translate(-168.11738,-344.83249)"><g
           transform="matrix(2.0094515,0,0,1.9176275,355.43785,-25.520972)"
           id="g3460"><g
             id="g3462"
             style="font-size:148.47744751px;line-height:125%;font-family:BubblerOne;fill:#ffffff;fill-opacity:1"
             transform="matrix(1.0266863,0,0,0.97400732,-0.339131,2.9900195)"><path
               inkscape:connector-curvature="0"
               id="path3464"
               style="font-style:normal;font-variant:normal;font-weight:300;font-stretch:normal;font-size:148.47781372px;line-height:125%;font-family:'Open Sans';-inkscape-font-specification:'Open Sans, Light';text-align:start;writing-mode:lr-tb;text-anchor:start;fill:#ffffff;fill-opacity:1"
               d="m 165.42922,384.63046 0,-105.99344 28.63707,0 q 25.37463,0 38.56944,13.26731 13.2673,13.2673 13.2673,38.71443 0,26.67961 -13.99229,40.3819 -13.9923,13.6298 -41.1069,13.6298 l -25.37462,0 z m 7.39489,-6.5249 17.54474,0 q 47.4868,0 47.4868,-47.19681 0,-22.76466 -11.59983,-34.21949 -11.52733,-11.52733 -33.9295,-11.52733 l -19.50221,0 0,92.94363 z" /><path
               inkscape:connector-curvature="0"
               id="path3466"
               style="font-style:normal;font-variant:normal;font-weight:300;font-stretch:normal;font-size:148.47781372px;line-height:125%;font-family:'Open Sans';-inkscape-font-specification:'Open Sans, Light';text-align:start;writing-mode:lr-tb;text-anchor:start;fill:#ffffff;fill-opacity:1"
               d="m 269.17519,346.93102 0,-68.294 7.46739,0 0,68.58399 q 0,15.29728 8.48237,23.85215 8.48238,8.48238 23.99715,8.48238 15.15228,0 23.48965,-8.33738 8.33738,-8.40988 8.33738,-23.27216 l 0,-69.30898 7.39489,0 0,68.58399 q 0,18.26973 -10.58484,28.56458 -10.58485,10.29485 -29.50707,10.29485 -18.41473,0 -28.78207,-10.29485 -10.29485,-10.36734 -10.29485,-28.85457 z" /><path
               inkscape:connector-curvature="0"
               id="path3468"
               style="font-style:normal;font-variant:normal;font-weight:300;font-stretch:normal;font-size:148.47781372px;line-height:125%;font-family:'Open Sans';-inkscape-font-specification:'Open Sans, Light';text-align:start;writing-mode:lr-tb;text-anchor:start;fill:#ffffff;fill-opacity:1"
               d="m 377.1261,384.63046 0,-105.99344 7.39489,0 62.71158,93.95862 0.43499,0 q -0.65249,-13.04981 -0.65249,-24.79464 l 0,-69.16398 7.17739,0 0,105.99344 -7.46739,0 -62.78407,-94.10361 -0.57999,0 q 0.86998,16.81975 0.86998,25.37462 l 0,68.72899 -7.10489,0 z" /><path
               inkscape:connector-curvature="0"
               id="path3470"
               style="font-style:normal;font-variant:normal;font-weight:300;font-stretch:normal;font-size:148.47781372px;line-height:125%;font-family:'Open Sans';-inkscape-font-specification:'Open Sans, Light';text-align:start;writing-mode:lr-tb;text-anchor:start;fill:#ffffff;fill-opacity:1"
               d="m 484.42452,384.63046 0,-105.99344 11.45483,0 37.55444,93.23363 0.435,0 37.55444,-93.23363 11.16484,0 0,105.99344 -7.46739,0 0,-80.32881 q 0,-8.40988 0.86999,-17.39975 l -0.57999,0 -39.65692,97.72856 -4.71243,0 -39.51192,-97.87356 -0.57999,0 q 0.57999,8.98987 0.57999,18.41473 l 0,79.45883 -7.10489,0 z" /></g><g
             transform="matrix(0.90908993,0,0,0.99668793,212.48654,5.9353634)"
             id="g3472"><path
               sodipodi:nodetypes="cssssccsssscc"
               style="fill:#2ff234;fill-opacity:1;stroke:none;stroke-width:1.26548982;stroke-miterlimit:10;stroke-dasharray:none"
               inkscape:connector-curvature="0"
               id="path3474"
               d="m 548.55255,311.82705 c 0.593,2.915 0.903,6.36295 0.903,9.45195 0,24.805 -22.47261,48.66612 -47.13461,48.66612 -24.662,0 -45.60152,-22.40149 -45.60152,-48.66612 0,-26.26357 21.45896,-46.98903 46.12096,-46.98903 12.271,0 24.85306,5.70317 32.94206,13.78017 L 540.59,283.435 c -9.699,-9.937 -23.172,-16.108 -38.05,-16.108 -29.474,0 -53.45068,24.203 -53.45068,53.952 0,29.749 23.97768,53.952 53.45068,53.952 29.473,0 53.451,-24.203 53.451,-53.952 0,-5.441 -0.811,-10.693 -2.301,-15.648 z"
               stroke-miterlimit="10" /><path
               inkscape:connector-curvature="0"
               id="path3476"
               transform="matrix(1.4769846,0,0,1.484705,-215.19778,-52.018283)"
               d="m 486.08789,214.875 c -20.18758,0 -36.59766,16.41984 -36.59766,36.58398 0,20.16415 16.41008,36.584 36.59766,36.58399 20.18759,10e-6 36.59766,-16.41984 36.59766,-36.58399 0,-4.27333 -0.74382,-8.37505 -2.09766,-12.1914 l -4.55469,4.0039 c 0.70796,2.60819 1.0918,5.35071 1.0918,8.1875 0,17.19022 -13.87033,31.05275 -31.03711,31.05274 -17.16677,10e-6 -31.03711,-13.86252 -31.03711,-31.05274 0,-17.19021 13.87034,-31.05273 31.03711,-31.05273 9.34991,0 17.71455,4.11834 23.40039,10.64063 l 4.14063,-3.64063 C 506.9165,219.73553 497.06409,214.875 486.08789,214.875 Z"
               style="color:#000000;font-style:normal;font-variant:normal;font-weight:normal;font-stretch:normal;font-size:medium;line-height:normal;font-family:sans-serif;text-indent:0;text-align:start;text-decoration:none;text-decoration-line:none;text-decoration-style:solid;text-decoration-color:#000000;letter-spacing:normal;word-spacing:normal;text-transform:none;direction:ltr;block-progression:tb;writing-mode:lr-tb;baseline-shift:baseline;text-anchor:start;white-space:normal;clip-rule:nonzero;display:inline;overflow:visible;visibility:visible;opacity:1;isolation:auto;mix-blend-mode:normal;color-interpolation:sRGB;color-interpolation-filters:linearRGB;solid-color:#000000;solid-opacity:1;fill:#ffffff;fill-opacity:1;fill-rule:nonzero;stroke:none;stroke-width:8.21273708;stroke-linecap:butt;stroke-linejoin:miter;stroke-miterlimit:10;stroke-dasharray:none;stroke-dashoffset:0;stroke-opacity:1;color-rendering:auto;image-rendering:auto;shape-rendering:auto;text-rendering:auto;enable-background:accumulate" /><g
               id="g3478"><path
                 inkscape:connector-curvature="0"
                 id="path3480"
                 d="m 496.699,347.35 -20.839,-28.495 7.06,-6.436 20.84,28.494 z"
                 style="fill:#54ba62" /><path
                 inkscape:connector-curvature="0"
                 id="path3482"
                 d="m 558.16,292.825 -59.929,52.946 -5.71,-8.196 59.928,-52.945 z"
                 style="fill:#54ba62" /><path
                 inkscape:connector-curvature="0"
                 id="path3484"
                 d="m 558.16,292.825 -59.929,52.946 -5.71,-8.196 59.928,-52.945 z"
                 style="fill:#54ba62;fill-opacity:1" /></g></g></g><g
           transform="translate(-278.38184,275)"
           id="g3578"><g
             transform="translate(0,-550)"
             style="display:none"
             display="none"
             id="Layer_3-0"><rect
               style="display:inline;fill:#54ba62"
               y="0"
               x="0"
               id="rect5-67"
               height="1200"
               width="2000"
               display="inline" /></g><g
             transform="translate(797.63736,-527.30956)"
             display="none"
             id="Layer_3-4-2"
             style="display:none"><rect
               id="rect4356-6"
               height="1200"
               width="2000"
               display="inline"
               x="0"
               y="0"
               style="display:inline;fill:#54ba62" /></g><g
             transform="matrix(0.9985724,0,0,0.9985724,-277.08681,-19.034976)"
             id="g4367"><g
               id="g4369"
               transform="translate(8.0610227,-10.461627)"><path
                 inkscape:connector-curvature="0"
                 id="path4371"
                 d="m 1035.1441,350.76953 -1.2301,21.95899 c 0,0 13.6174,0.12372 23.6172,9.30859 9.9999,9.18487 21.6172,33.88397 21.6172,75.44713 0,0 4.9609,-1.67448 10.9692,-1.67448 6.0083,0 11.0308,1.67459 11.0308,1.67459 0,-46.21139 -13.8828,-76.88625 -29.3828,-91.12302 -15.5,-14.23678 -36.6215,-15.5918 -36.6215,-15.5918 z"
                 style="color:#000000;font-style:normal;font-variant:normal;font-weight:normal;font-stretch:normal;font-size:medium;line-height:normal;font-family:sans-serif;text-indent:0;text-align:start;text-decoration:none;text-decoration-line:none;text-decoration-style:solid;text-decoration-color:#000000;letter-spacing:normal;word-spacing:normal;text-transform:none;direction:ltr;block-progression:tb;writing-mode:lr-tb;baseline-shift:baseline;text-anchor:start;white-space:normal;clip-rule:nonzero;display:inline;overflow:visible;visibility:visible;opacity:1;isolation:auto;mix-blend-mode:normal;color-interpolation:sRGB;color-interpolation-filters:linearRGB;solid-color:#000000;solid-opacity:1;fill:#ffffff;fill-opacity:1;fill-rule:evenodd;stroke:none;stroke-width:2.00285935;stroke-linecap:butt;stroke-linejoin:miter;stroke-miterlimit:4;stroke-dasharray:none;stroke-dashoffset:0;stroke-opacity:1;color-rendering:auto;image-rendering:auto;shape-rendering:auto;text-rendering:auto;enable-background:accumulate" /><path
                 inkscape:connector-curvature="0"
                 style="color:#000000;font-style:normal;font-variant:normal;font-weight:normal;font-stretch:normal;font-size:medium;line-height:normal;font-family:sans-serif;text-indent:0;text-align:start;text-decoration:none;text-decoration-line:none;text-decoration-style:solid;text-decoration-color:#000000;letter-spacing:normal;word-spacing:normal;text-transform:none;direction:ltr;block-progression:tb;writing-mode:lr-tb;baseline-shift:baseline;text-anchor:start;white-space:normal;clip-rule:nonzero;display:inline;overflow:visible;visibility:visible;opacity:1;isolation:auto;mix-blend-mode:normal;color-interpolation:sRGB;color-interpolation-filters:linearRGB;solid-color:#000000;solid-opacity:1;fill:#ffffff;fill-opacity:1;fill-rule:evenodd;stroke:none;stroke-width:2.00285935;stroke-linecap:butt;stroke-linejoin:miter;stroke-miterlimit:4;stroke-dasharray:none;stroke-dashoffset:0;stroke-opacity:1;color-rendering:auto;image-rendering:auto;shape-rendering:auto;text-rendering:auto;enable-background:accumulate"
                 d="m 1090.2129,458.20494 c -15.5385,0 -25.5113,8.50464 -29.7715,16.62305 -4.2602,8.1184 -4.1582,16.07226 -4.1582,16.07226 l 15.6484,-0.002 c 0,0 0.1001,-4.48221 2.3653,-8.79883 2.2652,-4.31662 5.346,-8.24609 15.916,-8.24609 10.5947,0 13.6688,3.93055 15.9277,8.24218 2.259,4.31164 2.3535,8.78907 2.3535,8.78907 l 15.6485,0.0293 c 0,0 0.1154,-7.95668 -4.1406,-16.08008 -4.2561,-8.12339 -14.2337,-16.6289 -29.7891,-16.6289 z"
                 id="path4373" /></g><g
               transform="matrix(-1,0,0,1,1848.7634,-10.461627)"
               id="g4375"><path
                 inkscape:connector-curvature="0"
                 style="color:#000000;font-style:normal;font-variant:normal;font-weight:normal;font-stretch:normal;font-size:medium;line-height:normal;font-family:sans-serif;text-indent:0;text-align:start;text-decoration:none;text-decoration-line:none;text-decoration-style:solid;text-decoration-color:#000000;letter-spacing:normal;word-spacing:normal;text-transform:none;direction:ltr;block-progression:tb;writing-mode:lr-tb;baseline-shift:baseline;text-anchor:start;white-space:normal;clip-rule:nonzero;display:inline;overflow:visible;visibility:visible;opacity:1;isolation:auto;mix-blend-mode:normal;color-interpolation:sRGB;color-interpolation-filters:linearRGB;solid-color:#000000;solid-opacity:1;fill:#ffffff;fill-opacity:1;fill-rule:evenodd;stroke:none;stroke-width:2.00285935;stroke-linecap:butt;stroke-linejoin:miter;stroke-miterlimit:4;stroke-dasharray:none;stroke-dashoffset:0;stroke-opacity:1;color-rendering:auto;image-rendering:auto;shape-rendering:auto;text-rendering:auto;enable-background:accumulate"
                 d="m 1035.7588,350.76953 -1.2301,21.95899 c 0,0 13.0027,0.12372 23.0025,9.30859 9.9999,9.18487 21.6172,33.88397 21.6172,75.44713 0,0 4.9609,-1.67448 10.9692,-1.67448 6.0083,0 11.0308,1.67459 11.0308,1.67459 0,-46.21139 -13.8828,-76.88625 -29.3828,-91.12302 -15.5,-14.23678 -36.0068,-15.5918 -36.0068,-15.5918 z"
                 id="path4377" /><path
                 inkscape:connector-curvature="0"
                 style="color:#000000;font-style:normal;font-variant:normal;font-weight:normal;font-stretch:normal;font-size:medium;line-height:normal;font-family:sans-serif;text-indent:0;text-align:start;text-decoration:none;text-decoration-line:none;text-decoration-style:solid;text-decoration-color:#000000;letter-spacing:normal;word-spacing:normal;text-transform:none;direction:ltr;block-progression:tb;writing-mode:lr-tb;baseline-shift:baseline;text-anchor:start;white-space:normal;clip-rule:nonzero;display:inline;overflow:visible;visibility:visible;opacity:1;isolation:auto;mix-blend-mode:normal;color-interpolation:sRGB;color-interpolation-filters:linearRGB;solid-color:#000000;solid-opacity:1;fill:#ffffff;fill-opacity:1;fill-rule:evenodd;stroke:none;stroke-width:2.00285935;stroke-linecap:butt;stroke-linejoin:miter;stroke-miterlimit:4;stroke-dasharray:none;stroke-dashoffset:0;stroke-opacity:1;color-rendering:auto;image-rendering:auto;shape-rendering:auto;text-rendering:auto;enable-background:accumulate"
                 d="m 1090.2129,458.20494 c -15.5385,0 -25.5113,8.50464 -29.7715,16.62305 -4.2602,8.1184 -4.1582,16.07226 -4.1582,16.07226 l 15.6484,-0.002 c 0,0 0.1001,-4.48221 2.3653,-8.79883 2.2652,-4.31662 5.346,-8.24609 15.916,-8.24609 10.5947,0 13.6688,3.93055 15.9277,8.24218 2.259,4.31164 2.3535,8.78907 2.3535,8.78907 l 15.6485,0.0293 c 0,0 0.1154,-7.95668 -4.1406,-16.08008 -4.2561,-8.12339 -14.2337,-16.6289 -29.7891,-16.6289 z"
                 id="path4379" /></g><path
               inkscape:connector-curvature="0"
               style="fill:#ffffff;fill-opacity:1;fill-rule:evenodd;stroke:none;stroke-width:1.8845396;stroke-linecap:butt;stroke-linejoin:miter;stroke-miterlimit:4;stroke-dasharray:none;stroke-opacity:1"
               d="m 825.89159,299.98089 c 67.85843,0 203.57451,0 203.57451,0 4.2825,0 8.9264,5.21029 8.8516,10.00254 -0.6055,32.66294 0.1358,290.0757 -110.63863,290.0757 -110.60818,0 -110.63848,-290.0757 -110.63848,-290.0757 0,-4.97936 4.43398,-10.00254 8.851,-10.00254 z"
               id="path4381" /><g
               id="g4391"
               transform="matrix(0.9264593,0,0,0.9264593,85.86144,28.611329)"><path
                 inkscape:connector-curvature="0"
                 style="fill:#ffffff;stroke:none;stroke-width:2.03413129;stroke-miterlimit:10;stroke-dasharray:none;stroke-opacity:1"
                 id="path4393"
                 d="m 1026.5803,235.89305 c 0,23.04498 -16.2047,41.72493 -36.19433,41.72493 l -163.49128,0 c -19.98933,0 -36.19459,-18.68095 -36.19459,-41.72493 l 0,-62.58739 c 0,-23.04495 16.20526,-41.72491 36.19459,-41.72491 l 163.49128,0 c 19.98963,0 36.19433,18.68096 36.19433,41.72491 l 0,62.58739 z"
                 stroke-miterlimit="10" /><path
                 inkscape:connector-curvature="0"
                 id="path4395"
                 d="m 873.57796,188.17867 a 20.329,21.306 0 0 1 -20.329,21.30599 20.329,21.306 0 0 1 -20.329,-21.30599 20.329,21.306 0 0 1 20.329,-21.306 20.329,21.306 0 0 1 20.329,21.306 z"
                 style="fill:#54ba62" /><path
                 inkscape:connector-curvature="0"
                 id="path4397"
                 d="m 981.78145,188.17967 a 20.329,21.306 0 0 1 -20.329,21.306 20.329,21.306 0 0 1 -20.32902,-21.306 20.329,21.306 0 0 1 20.32902,-21.306 20.329,21.306 0 0 1 20.329,21.306 z"
                 style="fill:#54ba62" /><g
                 transform="translate(-11.919031,-0.30690399)"
                 id="g4399"
                 style="stroke:none;stroke-opacity:1"><path
                   inkscape:connector-curvature="0"
                   style="color:#000000;font-style:normal;font-variant:normal;font-weight:normal;font-stretch:normal;font-size:medium;line-height:normal;font-family:sans-serif;text-indent:0;text-align:start;text-decoration:none;text-decoration-line:none;text-decoration-style:solid;text-decoration-color:#000000;letter-spacing:normal;word-spacing:normal;text-transform:none;direction:ltr;block-progression:tb;writing-mode:lr-tb;baseline-shift:baseline;text-anchor:start;white-space:normal;clip-rule:nonzero;display:inline;overflow:visible;visibility:visible;opacity:1;isolation:auto;mix-blend-mode:normal;color-interpolation:sRGB;color-interpolation-filters:linearRGB;solid-color:#000000;solid-opacity:1;fill:#ffffff;fill-opacity:1;fill-rule:evenodd;stroke:none;stroke-width:2.16184282;stroke-linecap:butt;stroke-linejoin:round;stroke-miterlimit:4;stroke-dasharray:none;stroke-dashoffset:0;stroke-opacity:1;color-rendering:auto;image-rendering:auto;shape-rendering:auto;text-rendering:auto;enable-background:accumulate"
                   d="m 938.37695,76.685547 c -11.81681,6.982664 -16.59569,21.205141 -19.10547,33.183593 -2.50977,11.97845 -2.49609,22.42188 -2.49609,22.42188 l 10.19922,0 c 0,0 0.0148,-9.52208 2.2793,-20.33008 2.26453,-10.80801 7.03209,-22.192085 14.3125,-26.494143 l -5.18946,-8.78125 z"
                   id="path4401" /><path
                   inkscape:connector-curvature="0"
                   style="fill:#54ba62;stroke:none;stroke-opacity:1"
                   d="m 954.5661,78.4832 a 13,13 0 0 1 -13,13 13,13 0 0 1 -13,-13 13,13 0 0 1 13,-13 13,13 0 0 1 13,13 z"
                   id="path4403" /></g></g></g></g><g
           transform="matrix(0.54752792,0,0,0.4968093,128.13004,463.22559)"
           id="g3"><g
             transform="matrix(1.6369189,0,0,1.794649,-379.36336,-250.46879)"
             id="g7"><path
               sodipodi:nodetypes="cssssccsssscc"
               style="fill:#2ff234;fill-opacity:1;stroke:none;stroke-width:1.26548982;stroke-miterlimit:10;stroke-dasharray:none"
               inkscape:connector-curvature="0"
               id="path15"
               d="m 548.55255,311.82705 c 0.593,2.915 0.903,6.36295 0.903,9.45195 0,24.805 -22.47261,48.66612 -47.13461,48.66612 -24.662,0 -45.60152,-22.40149 -45.60152,-48.66612 0,-26.26357 21.45896,-46.98903 46.12096,-46.98903 12.271,0 24.85306,5.70317 32.94206,13.78017 L 540.59,283.435 c -9.699,-9.937 -23.172,-16.108 -38.05,-16.108 -29.474,0 -53.45068,24.203 -53.45068,53.952 0,29.749 23.97768,53.952 53.45068,53.952 29.473,0 53.451,-24.203 53.451,-53.952 0,-5.441 -0.811,-10.693 -2.301,-15.648 z"
               stroke-miterlimit="10" /><path
               inkscape:connector-curvature="0"
               id="path4204"
               transform="matrix(1.4769846,0,0,1.484705,-215.19778,-52.018283)"
               d="m 486.08789,214.875 c -20.18758,0 -36.59766,16.41984 -36.59766,36.58398 0,20.16415 16.41008,36.584 36.59766,36.58399 20.18759,10e-6 36.59766,-16.41984 36.59766,-36.58399 0,-4.27333 -0.74382,-8.37505 -2.09766,-12.1914 l -4.55469,4.0039 c 0.70796,2.60819 1.0918,5.35071 1.0918,8.1875 0,17.19022 -13.87033,31.05275 -31.03711,31.05274 -17.16677,10e-6 -31.03711,-13.86252 -31.03711,-31.05274 0,-17.19021 13.87034,-31.05273 31.03711,-31.05273 9.34991,0 17.71455,4.11834 23.40039,10.64063 l 4.14063,-3.64063 C 506.9165,219.73553 497.06409,214.875 486.08789,214.875 Z"
               style="color:#000000;font-style:normal;font-variant:normal;font-weight:normal;font-stretch:normal;font-size:medium;line-height:normal;font-family:sans-serif;text-indent:0;text-align:start;text-decoration:none;text-decoration-line:none;text-decoration-style:solid;text-decoration-color:#000000;letter-spacing:normal;word-spacing:normal;text-transform:none;direction:ltr;block-progression:tb;writing-mode:lr-tb;baseline-shift:baseline;text-anchor:start;white-space:normal;clip-rule:nonzero;display:inline;overflow:visible;visibility:visible;opacity:1;isolation:auto;mix-blend-mode:normal;color-interpolation:sRGB;color-interpolation-filters:linearRGB;solid-color:#000000;solid-opacity:1;fill:#2f3234;fill-opacity:1;fill-rule:nonzero;stroke:none;stroke-width:8.21273708;stroke-linecap:butt;stroke-linejoin:miter;stroke-miterlimit:10;stroke-dasharray:none;stroke-dashoffset:0;stroke-opacity:1;color-rendering:auto;image-rendering:auto;shape-rendering:auto;text-rendering:auto;enable-background:accumulate" /><g
               id="g9"><path
                 inkscape:connector-curvature="0"
                 id="polygon11"
                 d="m 496.699,347.35 -20.839,-28.495 7.06,-6.436 20.84,28.494 z"
                 style="fill:#54ba62" /><path
                 inkscape:connector-curvature="0"
                 id="polygon13"
                 d="m 558.16,292.825 -59.929,52.946 -5.71,-8.196 59.928,-52.945 z"
                 style="fill:#54ba62" /><path
                 inkscape:connector-curvature="0"
                 id="polygon4217"
                 d="m 558.16,292.825 -59.929,52.946 -5.71,-8.196 59.928,-52.945 z"
                 style="fill:#54ba62;fill-opacity:1" /></g></g></g></g><g
         id="flowRoot3376"
         style="font-style:normal;font-variant:normal;font-weight:normal;font-stretch:normal;font-size:45px;line-height:125%;font-family:'Open Sans';-inkscape-font-specification:'Open Sans';text-align:center;letter-spacing:0px;word-spacing:0px;text-anchor:middle;fill:#ffffff;fill-opacity:1;stroke:none;stroke-width:1px;stroke-linecap:butt;stroke-linejoin:miter;stroke-opacity:1"
         transform="matrix(1.4598263,0,0,1.4598263,-499.74827,-156.76545)"><path
           inkscape:connector-curvature="0"
           id="path3550"
           d="m 701.23437,386.87447 4.08692,0 8.50342,16.06202 8.56933,-16.06202 4.04297,0 -10.72265,19.66553 0,12.4585 -3.7793,0 0,-12.28272 -10.70069,-19.84131 z" /><path
           inkscape:connector-curvature="0"
           id="path3552"
           d="m 728.98584,406.93551 q 0,-5.88867 2.94434,-9.1626 2.94433,-3.2959 8.17382,-3.2959 5.05371,0 8.02002,3.36182 2.98828,3.36182 2.98828,9.09668 0,5.88867 -2.9663,9.20654 -2.96631,3.2959 -8.1958,3.2959 -3.22999,0 -5.73487,-1.51611 -2.50488,-1.51612 -3.86719,-4.35059 -1.3623,-2.83447 -1.3623,-6.63574 z m 3.7793,0 q 0,4.61426 1.8457,7.03125 1.8457,2.41699 5.42725,2.41699 3.58154,0 5.42724,-2.39502 1.86768,-2.41699 1.86768,-7.05322 0,-4.59229 -1.86768,-6.96533 -1.8457,-2.39502 -5.47119,-2.39502 -3.58154,0 -5.40527,2.35107 -1.82373,2.35108 -1.82373,7.00928 z" /><path
           inkscape:connector-curvature="0"
           id="path3554"
           d="m 757.30859,410.67086 0,-15.75439 3.69141,0 0,15.62256 q 0,2.94433 1.34033,4.39453 1.34033,1.45019 4.19678,1.45019 3.7793,0 5.51514,-2.06543 1.75781,-2.06543 1.75781,-6.7456 l 0,-12.65625 3.64746,0 0,24.08203 -3.01025,0 -0.52735,-3.22998 -0.19775,0 q -1.12061,1.77978 -3.12012,2.72461 -1.97754,0.94482 -4.52637,0.94482 -4.39453,0 -6.59179,-2.0874 -2.1753,-2.0874 -2.1753,-6.67969 z" /><path
           inkscape:connector-curvature="0"
           id="path3556"
           d="m 785.16992,418.9985 0,-24.08203 3.01026,0 0.41748,4.46045 0.17578,0 q 1.34033,-2.35108 3.22998,-3.62549 1.88965,-1.27442 4.15283,-1.27442 1.604,0 2.87842,0.26368 l -0.50537,3.38378 q -1.49414,-0.32959 -2.63672,-0.32959 -2.92237,0 -5.00977,2.37305 -2.06543,2.37305 -2.06543,5.91065 l 0,12.91992 -3.64746,0 z" /><path
           inkscape:connector-curvature="0"
           id="path3558"
           d="m 815.86572,418.9985 0,-32.12403 8.32764,0 q 12.04101,0 12.04101,9.36036 0,4.87793 -3.33984,7.51464 -3.31787,2.61475 -9.51416,2.61475 l -3.7793,0 0,12.63428 -3.73535,0 z m 3.73535,-15.84229 3.36182,0 q 4.96582,0 7.18506,-1.604 2.21924,-1.60401 2.21924,-5.1416 0,-3.18604 -2.0874,-4.7461 -2.08741,-1.56006 -6.50391,-1.56006 l -4.17481,0 0,13.05176 z" /><path
           inkscape:connector-curvature="0"
           id="path3560"
           d="m 841.04639,407.15524 q 0,-5.82276 2.85644,-9.25049 2.87842,-3.42774 7.7124,-3.42774 4.52637,0 7.16309,2.98828 2.63672,2.96631 2.63672,7.84424 l 0,2.30713 -16.58936,0 q 0.10987,4.24072 2.13135,6.43799 2.04346,2.19727 5.73486,2.19727 3.88916,0 7.69043,-1.62598 l 0,3.25195 q -1.93359,0.83496 -3.66943,1.18653 -1.71387,0.37353 -4.15283,0.37353 -5.33936,0 -8.4375,-3.25195 -3.07617,-3.25196 -3.07617,-9.03076 z m 3.86718,-2.50489 12.59034,0 q 0,-3.4497 -1.53809,-5.27343 -1.53809,-1.84571 -4.39453,-1.84571 -2.90039,0 -4.63623,1.88965 -1.71387,1.88965 -2.02149,5.22949 z" /><path
           inkscape:connector-curvature="0"
           id="path3562"
           d="m 867.69922,418.9985 0,-24.08203 3.01025,0 0.41748,4.46045 0.17578,0 q 1.34034,-2.35108 3.22998,-3.62549 1.88965,-1.27442 4.15284,-1.27442 1.604,0 2.87841,0.26368 l -0.50537,3.38378 q -1.49414,-0.32959 -2.63672,-0.32959 -2.92236,0 -5.00976,2.37305 -2.06543,2.37305 -2.06543,5.91065 l 0,12.91992 -3.64746,0 z" /><path
           inkscape:connector-curvature="0"
           id="path3564"
           d="m 884.61816,400.82711 q 0,-2.94433 2.39502,-4.63623 2.39502,-1.71387 6.56983,-1.71387 3.88916,0 7.60254,1.58203 l -1.29639,2.96631 q -3.62549,-1.49414 -6.56982,-1.49414 -2.59278,0 -3.91114,0.81299 -1.31836,0.81299 -1.31836,2.24121 0,0.9668 0.4834,1.64795 0.50537,0.68115 1.60401,1.29639 1.09863,0.61523 4.21875,1.77978 4.28466,1.56006 5.7788,3.14209 1.51612,1.58203 1.51612,3.97705 0,3.36182 -2.50488,5.18555 -2.50489,1.82373 -7.03125,1.82373 -4.79004,0 -7.47071,-1.51611 l 0,-3.38379 q 1.73584,0.8789 3.71338,1.38428 1.99951,0.50537 3.84522,0.50537 2.85644,0 4.39453,-0.90088 1.53808,-0.92285 1.53808,-2.79053 0,-1.40625 -1.23047,-2.39502 -1.20849,-1.01074 -4.74609,-2.37305 -3.36182,-1.25244 -4.79004,-2.17529 -1.40625,-0.94482 -2.10937,-2.13135 -0.68116,-1.18652 -0.68116,-2.83447 z" /><path
           inkscape:connector-curvature="0"
           id="path3566"
           d="m 906.26123,406.93551 q 0,-5.88867 2.94434,-9.1626 2.94433,-3.2959 8.17382,-3.2959 5.05372,0 8.02002,3.36182 2.98829,3.36182 2.98829,9.09668 0,5.88867 -2.96631,9.20654 -2.96631,3.2959 -8.1958,3.2959 -3.22998,0 -5.73487,-1.51611 -2.50488,-1.51612 -3.86718,-4.35059 -1.36231,-2.83447 -1.36231,-6.63574 z m 3.7793,0 q 0,4.61426 1.8457,7.03125 1.8457,2.41699 5.42725,2.41699 3.58154,0 5.42724,-2.39502 1.86768,-2.41699 1.86768,-7.05322 0,-4.59229 -1.86768,-6.96533 -1.8457,-2.39502 -5.47119,-2.39502 -3.58154,0 -5.40527,2.35107 -1.82373,2.35108 -1.82373,7.00928 z" /><path
           inkscape:connector-curvature="0"
           id="path3568"
           d="m 934.84766,418.9985 0,-24.08203 2.9663,0 0.59327,3.2959 0.17578,0 q 1.1206,-1.77979 3.14209,-2.74659 2.02148,-0.98877 4.50439,-0.98877 4.35059,0 6.54785,2.10938 2.19727,2.0874 2.19727,6.70166 l 0,15.71045 -3.64746,0 0,-15.57862 q 0,-2.94433 -1.34033,-4.39453 -1.34034,-1.45019 -4.19678,-1.45019 -3.7793,0 -5.53711,2.04346 -1.75781,2.04345 -1.75781,6.7456 l 0,12.63428 -3.64746,0 z" /><path
           inkscape:connector-curvature="0"
           id="path3570"
           d="m 960.64355,412.34078 q 0,-7.29492 11.66749,-7.64648 l 4.08691,-0.13184 0,-1.49414 q 0,-2.83447 -1.23047,-4.1748 -1.2085,-1.36231 -3.88916,-1.36231 -3.01025,0 -6.81152,1.84571 l -1.12061,-2.79053 q 1.77979,-0.9668 3.88916,-1.51611 2.13135,-0.54932 4.2627,-0.54932 4.30664,0 6.37207,1.91162 2.0874,1.91162 2.0874,6.13037 l 0,16.43555 -2.70264,0 -0.72509,-3.42774 -0.17579,0 q -1.80175,2.26319 -3.60351,3.07618 -1.77979,0.79101 -4.46045,0.79101 -3.58154,0 -5.625,-1.8457 -2.02149,-1.84571 -2.02149,-5.25147 z m 3.82325,0.0439 q 0,1.97754 1.18652,3.01025 1.2085,1.03272 3.36182,1.03272 3.40576,0 5.33935,-1.86768 1.95557,-1.86767 1.95557,-5.22949 l 0,-2.17529 -3.64746,0.1538 q -4.35059,0.15381 -6.28418,1.36231 -1.91162,1.18652 -1.91162,3.71338 z" /><path
           inkscape:connector-curvature="0"
           id="path3572"
           d="m 987.49414,418.9985 0,-34.18946 3.64746,0 0,34.18946 -3.64746,0 z" /><path
           inkscape:connector-curvature="0"
           id="path3574"
           d="m 1011.1587,418.9985 0,-32.12403 8.3276,0 q 12.041,0 12.041,9.36036 0,4.87793 -3.3398,7.51464 -3.3179,2.61475 -9.5142,2.61475 l -3.7793,0 0,12.63428 -3.7353,0 z m 3.7353,-15.84229 3.3619,0 q 4.9658,0 7.185,-1.604 2.2193,-1.60401 2.2193,-5.1416 0,-3.18604 -2.0874,-4.7461 -2.0874,-1.56006 -6.504,-1.56006 l -4.1748,0 0,13.05176 z" /><path
           inkscape:connector-curvature="0"
           id="path3576"
           d="m 1037.6797,418.9985 0,-24.08203 3.0102,0 0.4175,4.46045 0.1758,0 q 1.3403,-2.35108 3.23,-3.62549 1.8896,-1.27442 4.1528,-1.27442 1.604,0 2.8784,0.26368 l -0.5053,3.38378 q -1.4942,-0.32959 -2.6368,-0.32959 -2.9223,0 -5.0097,2.37305 -2.0655,2.37305 -2.0655,5.91065 l 0,12.91992 -3.6474,0 z" /><path
           inkscape:connector-curvature="0"
           id="path3578"
           d="m 1054.7964,406.93551 q 0,-5.88867 2.9443,-9.1626 2.9444,-3.2959 8.1739,-3.2959 5.0537,0 8.02,3.36182 2.9883,3.36182 2.9883,9.09668 0,5.88867 -2.9664,9.20654 -2.9663,3.2959 -8.1958,3.2959 -3.2299,0 -5.7348,-1.51611 -2.5049,-1.51612 -3.8672,-4.35059 -1.3623,-2.83447 -1.3623,-6.63574 z m 3.7793,0 q 0,4.61426 1.8457,7.03125 1.8457,2.41699 5.4272,2.41699 3.5816,0 5.4273,-2.39502 1.8677,-2.41699 1.8677,-7.05322 0,-4.59229 -1.8677,-6.96533 -1.8457,-2.39502 -5.4712,-2.39502 -3.5816,0 -5.4053,2.35107 -1.8237,2.35108 -1.8237,7.00928 z" /><path
           inkscape:connector-curvature="0"
           id="path3580"
           d="m 1082.0425,407.0234 q 0,-5.95459 2.6367,-9.25049 2.6367,-3.2959 7.3389,-3.2959 4.8999,0 7.5146,3.55957 l 0.2857,0 -0.1538,-1.73584 -0.088,-1.69189 0,-9.79981 3.6474,0 0,34.18946 -2.9663,0 -0.4834,-3.22998 -0.1977,0 q -2.5269,3.66943 -7.5586,3.66943 -4.7242,0 -7.3609,-3.22998 -2.6147,-3.22998 -2.6147,-9.18457 z m 3.7793,0.0439 q 0,4.61425 1.6919,6.96533 1.6919,2.35107 4.9658,2.35107 3.7353,0 5.4053,-2.02148 1.6919,-2.04346 1.6919,-6.56983 l 0,-0.76904 q 0,-5.11963 -1.7139,-7.29492 -1.6919,-2.19727 -5.4273,-2.19727 -3.208,0 -4.9218,2.50489 -1.6919,2.48291 -1.6919,7.03125 z" /><path
           inkscape:connector-curvature="0"
           id="path3582"
           d="m 1110.7168,410.67086 0,-15.75439 3.6914,0 0,15.62256 q 0,2.94433 1.3403,4.39453 1.3404,1.45019 4.1968,1.45019 3.7793,0 5.5151,-2.06543 1.7579,-2.06543 1.7579,-6.7456 l 0,-12.65625 3.6474,0 0,24.08203 -3.0102,0 -0.5274,-3.22998 -0.1977,0 q -1.1206,1.77978 -3.1201,2.72461 -1.9776,0.94482 -4.5264,0.94482 -4.3945,0 -6.5918,-2.0874 -2.1753,-2.0874 -2.1753,-6.67969 z" /><path
           inkscape:connector-curvature="0"
           id="path3584"
           d="m 1137.2378,407.11129 q 0,-6.04248 2.9004,-9.33838 2.9223,-3.2959 8.3056,-3.2959 1.7359,0 3.4717,0.37354 1.7359,0.37353 2.7246,0.8789 l -1.1206,3.09815 q -1.2085,-0.4834 -2.6367,-0.79102 -1.4282,-0.32959 -2.5268,-0.32959 -7.3389,0 -7.3389,9.36036 0,4.43847 1.7798,6.81152 1.8017,2.37305 5.3174,2.37305 3.0102,0 6.1743,-1.29639 l 0,3.22998 q -2.417,1.25244 -6.0865,1.25244 -5.2294,0 -8.1079,-3.20801 -2.8564,-3.22998 -2.8564,-9.11865 z" /><path
           inkscape:connector-curvature="0"
           id="path3586"
           d="m 1156.8374,397.75094 0,-1.75781 3.4497,-1.51612 1.5381,-5.1416 2.1094,0 0,5.58106 6.9873,0 0,2.83447 -6.9873,0 0,14.17236 q 0,2.1753 1.0327,3.33985 1.0327,1.16455 2.8345,1.16455 0.9668,0 1.8676,-0.13184 0.9009,-0.15381 1.4283,-0.30762 l 0,2.79053 q -0.5933,0.28565 -1.7579,0.46143 -1.1425,0.19775 -2.0654,0.19775 -6.9873,0 -6.9873,-7.36084 l 0,-14.32617 -3.4497,0 z" /><path
           inkscape:connector-curvature="0"
           id="path3588"
           d="m 1175.624,388.39059 q 0,-1.25244 0.6153,-1.82373 0.6152,-0.59326 1.538,-0.59326 0.879,0 1.5162,0.59326 0.6372,0.59326 0.6372,1.82373 0,1.23047 -0.6372,1.8457 -0.6372,0.59326 -1.5162,0.59326 -0.9228,0 -1.538,-0.59326 -0.6153,-0.61523 -0.6153,-1.8457 z m 0.3076,30.60791 0,-24.08203 3.6475,0 0,24.08203 -3.6475,0 z" /><path
           inkscape:connector-curvature="0"
           id="path3590"
           d="m 1183.4023,394.91647 3.9112,0 5.1855,14.28222 q 1.7578,5.00977 2.0655,6.50391 l 0.1757,0 q 0.2417,-1.16455 1.5161,-4.81201 1.2964,-3.66944 5.7789,-15.97412 l 3.9111,0 -9.1406,24.08203 -4.2627,0 -9.1407,-24.08203 z" /><path
           inkscape:connector-curvature="0"
           id="path3592"
           d="m 1209.5498,388.39059 q 0,-1.25244 0.6152,-1.82373 0.6153,-0.59326 1.5381,-0.59326 0.8789,0 1.5161,0.59326 0.6372,0.59326 0.6372,1.82373 0,1.23047 -0.6372,1.8457 -0.6372,0.59326 -1.5161,0.59326 -0.9228,0 -1.5381,-0.59326 -0.6152,-0.61523 -0.6152,-1.8457 z m 0.3076,30.60791 0,-24.08203 3.6475,0 0,24.08203 -3.6475,0 z" /><path
           inkscape:connector-curvature="0"
           id="path3594"
           d="m 1218.0093,397.75094 0,-1.75781 3.4497,-1.51612 1.5381,-5.1416 2.1093,0 0,5.58106 6.9874,0 0,2.83447 -6.9874,0 0,14.17236 q 0,2.1753 1.0328,3.33985 1.0327,1.16455 2.8344,1.16455 0.9668,0 1.8677,-0.13184 0.9009,-0.15381 1.4282,-0.30762 l 0,2.79053 q -0.5932,0.28565 -1.7578,0.46143 -1.1426,0.19775 -2.0654,0.19775 -6.9873,0 -6.9873,-7.36084 l 0,-14.32617 -3.4497,0 z" /><path
           inkscape:connector-curvature="0"
           id="path3596"
           d="m 1233.2803,394.91647 3.9111,0 5.2734,13.73291 q 1.7359,4.70215 2.1534,6.78955 l 0.1757,0 q 0.2857,-1.12061 1.1866,-3.82324 0.9228,-2.72461 5.9765,-16.69922 l 3.9112,0 -10.3492,27.42187 q -1.538,4.06494 -3.6035,5.75684 -2.0434,1.71386 -5.0317,1.71386 -1.6699,0 -3.2959,-0.37353 l 0,-2.92236 q 1.2085,0.26367 2.7026,0.26367 3.7574,0 5.3614,-4.21875 l 1.3403,-3.42774 -9.7119,-24.21386 z" /><path
           inkscape:connector-curvature="0"
           id="path3598"
           d="m 1267.6016,418.9985 12.7002,-32.25586 3.142,0 12.6343,32.25586 -3.8672,0 -3.999,-10.21729 -12.876,0 -3.955,10.21729 -3.7793,0 z m 9.0527,-13.5791 10.3931,0 -3.7354,-9.95362 q -0.7251,-1.88965 -1.4941,-4.63623 -0.4834,2.10938 -1.3843,4.63623 l -3.7793,9.95362 z" /><path
           inkscape:connector-curvature="0"
           id="path3600"
           d="m 1298.4072,400.82711 q 0,-2.94433 2.395,-4.63623 2.3951,-1.71387 6.5699,-1.71387 3.8891,0 7.6025,1.58203 l -1.2964,2.96631 q -3.6255,-1.49414 -6.5698,-1.49414 -2.5928,0 -3.9111,0.81299 -1.3184,0.81299 -1.3184,2.24121 0,0.9668 0.4834,1.64795 0.5054,0.68115 1.604,1.29639 1.0986,0.61523 4.2188,1.77978 4.2846,1.56006 5.7788,3.14209 1.5161,1.58203 1.5161,3.97705 0,3.36182 -2.5049,5.18555 -2.5049,1.82373 -7.0313,1.82373 -4.79,0 -7.4707,-1.51611 l 0,-3.38379 q 1.7359,0.8789 3.7134,1.38428 1.9995,0.50537 3.8452,0.50537 2.8565,0 4.3946,-0.90088 1.5381,-0.92285 1.5381,-2.79053 0,-1.40625 -1.2305,-2.39502 -1.2085,-1.01074 -4.7461,-2.37305 -3.3618,-1.25244 -4.79,-2.17529 -1.4063,-0.94482 -2.1094,-2.13135 -0.6812,-1.18652 -0.6812,-2.83447 z" /><path
           inkscape:connector-curvature="0"
           id="path3602"
           d="m 1319.8525,400.82711 q 0,-2.94433 2.3951,-4.63623 2.395,-1.71387 6.5698,-1.71387 3.8891,0 7.6025,1.58203 l -1.2964,2.96631 q -3.6255,-1.49414 -6.5698,-1.49414 -2.5928,0 -3.9111,0.81299 -1.3184,0.81299 -1.3184,2.24121 0,0.9668 0.4834,1.64795 0.5054,0.68115 1.604,1.29639 1.0987,0.61523 4.2188,1.77978 4.2846,1.56006 5.7788,3.14209 1.5161,1.58203 1.5161,3.97705 0,3.36182 -2.5049,5.18555 -2.5049,1.82373 -7.0312,1.82373 -4.7901,0 -7.4707,-1.51611 l 0,-3.38379 q 1.7358,0.8789 3.7133,1.38428 1.9995,0.50537 3.8453,0.50537 2.8564,0 4.3945,-0.90088 1.5381,-0.92285 1.5381,-2.79053 0,-1.40625 -1.2305,-2.39502 -1.2085,-1.01074 -4.7461,-2.37305 -3.3618,-1.25244 -4.79,-2.17529 -1.4063,-0.94482 -2.1094,-2.13135 -0.6812,-1.18652 -0.6812,-2.83447 z" /><path
           inkscape:connector-curvature="0"
           id="path3604"
           d="m 1342.5283,388.39059 q 0,-1.25244 0.6153,-1.82373 0.6152,-0.59326 1.538,-0.59326 0.8789,0 1.5162,0.59326 0.6372,0.59326 0.6372,1.82373 0,1.23047 -0.6372,1.8457 -0.6373,0.59326 -1.5162,0.59326 -0.9228,0 -1.538,-0.59326 -0.6153,-0.61523 -0.6153,-1.8457 z m 0.3076,30.60791 0,-24.08203 3.6475,0 0,24.08203 -3.6475,0 z" /><path
           inkscape:connector-curvature="0"
           id="path3606"
           d="m 1352.6357,400.82711 q 0,-2.94433 2.3951,-4.63623 2.395,-1.71387 6.5698,-1.71387 3.8891,0 7.6025,1.58203 l -1.2964,2.96631 q -3.6254,-1.49414 -6.5698,-1.49414 -2.5928,0 -3.9111,0.81299 -1.3184,0.81299 -1.3184,2.24121 0,0.9668 0.4834,1.64795 0.5054,0.68115 1.604,1.29639 1.0987,0.61523 4.2188,1.77978 4.2846,1.56006 5.7788,3.14209 1.5161,1.58203 1.5161,3.97705 0,3.36182 -2.5049,5.18555 -2.5049,1.82373 -7.0312,1.82373 -4.7901,0 -7.4707,-1.51611 l 0,-3.38379 q 1.7358,0.8789 3.7133,1.38428 1.9996,0.50537 3.8453,0.50537 2.8564,0 4.3945,-0.90088 1.5381,-0.92285 1.5381,-2.79053 0,-1.40625 -1.2305,-2.39502 -1.2085,-1.01074 -4.7461,-2.37305 -3.3618,-1.25244 -4.79,-2.17529 -1.4063,-0.94482 -2.1094,-2.13135 -0.6812,-1.18652 -0.6812,-2.83447 z" /><path
           inkscape:connector-curvature="0"
           id="path3608"
           d="m 1372.4331,397.75094 0,-1.75781 3.4497,-1.51612 1.5381,-5.1416 2.1094,0 0,5.58106 6.9873,0 0,2.83447 -6.9873,0 0,14.17236 q 0,2.1753 1.0327,3.33985 1.0327,1.16455 2.8345,1.16455 0.9668,0 1.8676,-0.13184 0.9009,-0.15381 1.4283,-0.30762 l 0,2.79053 q -0.5933,0.28565 -1.7579,0.46143 -1.1425,0.19775 -2.0654,0.19775 -6.9873,0 -6.9873,-7.36084 l 0,-14.32617 -3.4497,0 z" /><path
           inkscape:connector-curvature="0"
           id="path3610"
           d="m 1389.7256,412.34078 q 0,-7.29492 11.6675,-7.64648 l 4.0869,-0.13184 0,-1.49414 q 0,-2.83447 -1.2305,-4.1748 -1.2085,-1.36231 -3.8891,-1.36231 -3.0103,0 -6.8116,1.84571 l -1.1206,-2.79053 q 1.7798,-0.9668 3.8892,-1.51611 2.1313,-0.54932 4.2627,-0.54932 4.3066,0 6.372,1.91162 2.0875,1.91162 2.0875,6.13037 l 0,16.43555 -2.7027,0 -0.7251,-3.42774 -0.1758,0 q -1.8017,2.26319 -3.6035,3.07618 -1.7798,0.79101 -4.4604,0.79101 -3.5816,0 -5.625,-1.8457 -2.0215,-1.84571 -2.0215,-5.25147 z m 3.8232,0.0439 q 0,1.97754 1.1866,3.01025 1.2084,1.03272 3.3618,1.03272 3.4057,0 5.3393,-1.86768 1.9556,-1.86767 1.9556,-5.22949 l 0,-2.17529 -3.6475,0.1538 q -4.3506,0.15381 -6.2842,1.36231 -1.9116,1.18652 -1.9116,3.71338 z" /><path
           inkscape:connector-curvature="0"
           id="path3612"
           d="m 1416.5762,418.9985 0,-24.08203 2.9663,0 0.5932,3.2959 0.1758,0 q 1.1206,-1.77979 3.1421,-2.74659 2.0215,-0.98877 4.5044,-0.98877 4.3506,0 6.5479,2.10938 2.1972,2.0874 2.1972,6.70166 l 0,15.71045 -3.6474,0 0,-15.57862 q 0,-2.94433 -1.3404,-4.39453 -1.3403,-1.45019 -4.1967,-1.45019 -3.7793,0 -5.5372,2.04346 -1.7578,2.04345 -1.7578,6.7456 l 0,12.63428 -3.6474,0 z" /><path
           inkscape:connector-curvature="0"
           id="path3614"
           d="m 1440.9878,397.75094 0,-1.75781 3.4497,-1.51612 1.5381,-5.1416 2.1094,0 0,5.58106 6.9873,0 0,2.83447 -6.9873,0 0,14.17236 q 0,2.1753 1.0327,3.33985 1.0327,1.16455 2.8344,1.16455 0.9668,0 1.8677,-0.13184 0.9009,-0.15381 1.4282,-0.30762 l 0,2.79053 q -0.5932,0.28565 -1.7578,0.46143 -1.1425,0.19775 -2.0654,0.19775 -6.9873,0 -6.9873,-7.36084 l 0,-14.32617 -3.4497,0 z" /></g></g></g></svg>